<?xml version="1.0" encoding="UTF-8"?>
<svg id="Camada_2" data-name="Camada 2" xmlns="http://www.w3.org/2000/svg" viewBox="0 0 1489.06 604.94">
  <defs>
    <style>
      .cls-1 {
        fill: #f4f0eb;
      }
    </style>
  </defs>
  <g id="Camada_1-2" data-name="Camada 1">
    <g>
      <g>
        <path class="cls-1" d="M1489.06,182.38h-60v-64.76l-57.62-57.62h-64.76V0h77.19c7.96,0,15.59,3.16,21.21,8.79l75.19,75.19c5.63,5.63,8.79,13.26,8.79,21.21v77.19Z"/>
        <path class="cls-1" d="M1120.83,398.23H0v-60h1108.4L1400.25,46.38l42.43,42.43-300.63,300.63c-5.63,5.63-13.26,8.79-21.21,8.79Z"/>
      </g>
      <g>
        <path class="cls-1" d="M1425.69,604.94l-42.43-42.43,45.8-45.8v-81.48l-45.8-45.8,42.43-42.43,54.58,54.58c5.63,5.63,8.79,13.26,8.79,21.21v106.34c0,7.96-3.16,15.59-8.79,21.21l-54.58,54.58Z"/>
        <rect class="cls-1" y="445.98" width="1459.06" height="60"/>
      </g>
    </g>
  </g>
</svg>