<?xml version="1.0" encoding="UTF-8"?>
<svg id="Camada_2" data-name="Camada 2" xmlns="http://www.w3.org/2000/svg" viewBox="0 0 235.09 197.5">
  <defs>
    <style>
      .cls-1 {
        fill: #121c2d;
      }
    </style>
  </defs>
  <g id="Camada_1-2" data-name="Camada 1">
    <g>
      <g>
        <path class="cls-1" d="M142.02,173.66h-9.4v-90.51c0-1.17.44-2.3,1.22-3.16l23.53-25.89,6.96,6.32-22.3,24.55v88.69Z"/>
        <path class="cls-1" d="M102.48,173.66h-9.4v-88.56l-23.33-23.33,6.65-6.65,24.71,24.71c.88.88,1.38,2.08,1.38,3.33v90.51Z"/>
        <path class="cls-1" d="M141.94,173.66h-9.4s.08-90.51.08-90.51c0-1.17.44-2.29,1.22-3.16l23.53-25.89,6.96,6.32-22.31,24.55-.08,88.69Z"/>
        <rect class="cls-1" x="112.8" y="37.39" width="9.4" height="136.27"/>
        <path class="cls-1" d="M137.23,178.36h-39.46c-1.38,0-2.68-.6-3.58-1.65l-19.73-23.14c-.73-.85-1.12-1.93-1.12-3.05v-43.51l-19.93-19.93h-16.02v-9.4h17.97c1.25,0,2.44.5,3.33,1.38l22.68,22.68c.88.88,1.38,2.08,1.38,3.33v43.72l17.2,20.17h35.12l17.27-20.17v-43.67c0-1.25.5-2.44,1.38-3.32l22.68-22.68c.88-.88,2.08-1.38,3.33-1.38h17.97v9.4h-16.02l-19.93,19.93v43.46c0,1.12-.4,2.21-1.13,3.06l-19.81,23.14c-.89,1.04-2.2,1.64-3.57,1.64Z"/>
        <path class="cls-1" d="M137.23,178.36h-39.46c-1.38,0-2.68-.6-3.58-1.65l-19.73-23.14c-.73-.85-1.12-1.93-1.12-3.05v-45.45h9.4v43.72l17.2,20.17h35.12l17.27-20.17v-43.67h9.4v45.41c0,1.12-.4,2.21-1.13,3.06l-19.81,23.14c-.89,1.04-2.2,1.64-3.57,1.64Z"/>
        <path class="cls-1" d="M147.08,197.5h-59.19c-1.38,0-2.68-.6-3.58-1.65l-30.67-35.97c-.73-.85-1.12-1.93-1.12-3.05v-18.26c0-1.29.53-2.52,1.47-3.41l20.82-19.74,6.47,6.83-19.35,18.34v14.51l28.14,33h54.85l28.25-32.99v-14.52l-19.35-18.32,6.46-6.83,20.82,19.71c.94.89,1.47,2.12,1.47,3.41v18.28c0,1.12-.4,2.21-1.13,3.06l-30.79,35.95c-.89,1.04-2.2,1.64-3.57,1.64Z"/>
      </g>
      <g>
        <path class="cls-1" d="M27.82,102.51h-13.54c-1.25,0-2.44-.5-3.33-1.38l-9.58-9.57c-.88-.88-1.38-2.08-1.38-3.33v-13.54c0-1.25.5-2.44,1.38-3.33l9.58-9.58c.88-.88,2.08-1.38,3.33-1.38h13.54c1.25,0,2.44.5,3.33,1.38l9.57,9.58c.88.88,1.38,2.08,1.38,3.32v13.54c0,1.25-.5,2.44-1.38,3.32l-9.57,9.57c-.88.88-2.08,1.38-3.33,1.38ZM16.23,93.11h9.65l6.82-6.82v-9.65l-6.82-6.82h-9.65l-6.82,6.82v9.65l6.82,6.82Z"/>
        <path class="cls-1" d="M124.28,42.1h-13.54c-1.25,0-2.44-.5-3.33-1.38l-9.58-9.58c-.88-.88-1.38-2.08-1.38-3.33v-13.54c0-1.25.5-2.44,1.38-3.33l9.58-9.57c.88-.88,2.08-1.38,3.33-1.38h13.54c1.25,0,2.44.5,3.33,1.38l9.58,9.57c.88.88,1.38,2.08,1.38,3.33v13.54c0,1.25-.5,2.44-1.38,3.33l-9.58,9.58c-.88.88-2.08,1.38-3.33,1.38ZM112.68,32.69h9.65l6.82-6.82v-9.65l-6.82-6.82h-9.65l-6.82,6.82v9.65l6.82,6.82Z"/>
        <path class="cls-1" d="M220.82,102.56h-13.54c-1.25,0-2.44-.5-3.33-1.38l-9.58-9.57c-.88-.88-1.38-2.08-1.38-3.33v-13.54c0-1.25.5-2.44,1.38-3.33l9.58-9.58c.88-.88,2.08-1.38,3.33-1.38h13.54c1.25,0,2.44.5,3.33,1.38l9.58,9.58c.88.88,1.38,2.08,1.38,3.33v13.54c0,1.25-.5,2.44-1.38,3.33l-9.58,9.57c-.88.88-2.08,1.38-3.33,1.38ZM209.22,93.15h9.64l6.82-6.82v-9.65l-6.82-6.82h-9.64l-6.82,6.82v9.65l6.82,6.82Z"/>
        <path class="cls-1" d="M179.04,66.75h-13.54c-1.25,0-2.44-.5-3.33-1.38l-9.57-9.57c-.88-.88-1.38-2.08-1.38-3.32v-13.54c0-1.25.5-2.44,1.38-3.32l9.57-9.58c.88-.88,2.08-1.38,3.33-1.38h13.54c1.25,0,2.44.5,3.33,1.38l9.58,9.58c.88.88,1.38,2.08,1.38,3.33v13.54c0,1.25-.5,2.44-1.38,3.33l-9.58,9.57c-.88.88-2.08,1.38-3.33,1.38ZM167.44,57.35h9.65l6.82-6.82v-9.65l-6.82-6.82h-9.65l-6.82,6.82v9.65l6.82,6.82Z"/>
        <path class="cls-1" d="M68.42,67.94h-13.54c-1.25,0-2.44-.5-3.33-1.38l-9.58-9.58c-.88-.88-1.38-2.08-1.38-3.33v-13.54c0-1.25.5-2.44,1.38-3.33l9.58-9.57c.88-.88,2.08-1.38,3.33-1.38h13.54c1.25,0,2.44.5,3.33,1.38l9.58,9.57c.88.88,1.38,2.08,1.38,3.33v13.54c0,1.25-.5,2.44-1.38,3.33l-9.58,9.58c-.88.88-2.08,1.38-3.33,1.38ZM56.82,58.53h9.65l6.82-6.82v-9.65l-6.82-6.82h-9.65l-6.82,6.82v9.65l6.82,6.82Z"/>
      </g>
    </g>
  </g>
</svg>