<?xml version="1.0" encoding="UTF-8"?>
<svg id="Camada_2" data-name="Camada 2" xmlns="http://www.w3.org/2000/svg" viewBox="0 0 127.59 103.2">
  <defs>
    <style>
      .cls-1 {
        fill: #121c2d;
      }
    </style>
  </defs>
  <g id="Camada_1-2" data-name="Camada 1">
    <g>
      <path class="cls-1" d="M69.4,103.2h-11.21c-.8,0-1.56-.32-2.12-.88l-7.92-7.92c-.56-.56-.88-1.33-.88-2.12v-11.21c0-.8.32-1.56.88-2.12l7.92-7.92c.56-.56,1.33-.88,2.12-.88h11.21c.8,0,1.56.32,2.12.88l7.92,7.92c.56.56.88,1.33.88,2.12v11.21c0,.8-.32,1.56-.88,2.12l-7.92,7.92c-.56.56-1.33.88-2.12.88ZM59.44,97.2h8.72l6.17-6.17v-8.72l-6.17-6.17h-8.72l-6.17,6.17v8.72l6.17,6.17Z"/>
      <path class="cls-1" d="M29.55,72.96l-4.24-4.24,21.08-21.08c.56-.56,1.33-.88,2.12-.88h30.59c.8,0,1.56.32,2.12.88l21.08,21.08-4.24,4.24-20.2-20.2h-28.1l-20.2,20.2Z"/>
      <path class="cls-1" d="M110.7,52.54l-23.17-23.17h-47.47l-23.17,23.17-4.24-4.24,24.05-24.05c.56-.56,1.33-.88,2.12-.88h49.95c.8,0,1.56.32,2.12.88l24.05,24.05-4.24,4.24Z"/>
      <path class="cls-1" d="M123.35,32.14l-26.14-26.14H30.38L4.24,32.14,0,27.9,27.02.88c.56-.56,1.33-.88,2.12-.88h69.32c.8,0,1.56.32,2.12.88l27.02,27.02-4.24,4.24Z"/>
    </g>
  </g>
</svg>