<?xml version="1.0" encoding="UTF-8"?>
<svg id="Camada_2" data-name="Camada 2" xmlns="http://www.w3.org/2000/svg" viewBox="0 0 131.44 103.2">
  <defs>
    <style>
      .cls-1 {
        fill: #121c2d;
      }
    </style>
  </defs>
  <g id="Camada_1-2" data-name="Camada 1">
    <g>
      <g>
        <path class="cls-1" d="M96.16,89.59h-6v-14.56l-14.09-13.01h-21.53l-13.27,12.96v14.61h-6v-15.88c0-.81.33-1.58.9-2.15l15.04-14.69c.56-.55,1.31-.85,2.1-.85h23.92c.75,0,1.48.28,2.04.8l15.92,14.69c.61.57.96,1.37.96,2.2v15.88Z"/>
        <path class="cls-1" d="M65.72,50.14c-9.81,0-17.8-8.09-17.8-18.04v-4.79h6v4.79c0,6.64,5.29,12.04,11.8,12.04s11.8-5.4,11.8-12.04v-4.79h6v4.79c0,9.94-7.98,18.04-17.8,18.04Z"/>
        <path class="cls-1" d="M85.84,30.31h-40.25c-1.66,0-3-1.34-3-3v-10.85c0-.8.32-1.56.88-2.12l9.03-9.03c.56-.56,1.33-.88,2.12-.88h4.43v6h-3.19l-7.28,7.28v6.61h34.25v-6.61l-7.28-7.28h-3.19v-6h4.43c.8,0,1.56.32,2.12.88l9.03,9.03c.56.56.88,1.33.88,2.12v10.85c0,1.66-1.34,3-3,3Z"/>
        <path class="cls-1" d="M69.42,16.43l-1.09-10.43h-5.23l-1.09,10.43-5.97-.62,1.37-13.11c.16-1.53,1.45-2.69,2.98-2.69h10.64c1.54,0,2.82,1.16,2.98,2.69l1.37,13.11-5.97.62Z"/>
      </g>
      <path class="cls-1" d="M16.16,89.59h-6V29.38c0-5.89,4.79-10.67,10.67-10.67h24.77v6h-24.77c-2.57,0-4.67,2.1-4.67,4.67v60.21Z"/>
      <path class="cls-1" d="M122.48,103.2H8.96c-.84,0-1.65-.36-2.22-.98l-5.96-6.54c-.8-.88-1.01-2.15-.53-3.23l1.8-4.07c.48-1.09,1.56-1.79,2.74-1.79h121.84c1.19,0,2.26.7,2.74,1.79l1.8,4.07c.48,1.09.27,2.35-.53,3.23l-5.96,6.54c-.57.62-1.37.98-2.22.98ZM10.28,97.2h110.87l3.75-4.12-.22-.49H6.75l-.22.49,3.75,4.12Z"/>
      <path class="cls-1" d="M121.22,89.59h-6V29.38c0-2.58-2.09-4.67-4.67-4.67h-24.71v-6h24.71c5.88,0,10.67,4.79,10.67,10.67v60.21Z"/>
    </g>
  </g>
</svg>