<?xml version="1.0" encoding="UTF-8"?>
<svg id="Camada_2" data-name="Camada 2" xmlns="http://www.w3.org/2000/svg" viewBox="0 0 121.04 103.2">
  <defs>
    <style>
      .cls-1 {
        fill: #121c2d;
      }
    </style>
  </defs>
  <g id="Camada_1-2" data-name="Camada 1">
    <g>
      <g>
        <path class="cls-1" d="M60.52,72.61c-.39,0-.78-.08-1.15-.23l-23.55-9.76c-.2-.08-.39-.18-.56-.31L1.29,38.77c-.81-.56-1.29-1.48-1.29-2.47s.48-1.9,1.29-2.47L35.26,10.29c.18-.12.36-.22.56-.31L59.37.23c.74-.3,1.56-.3,2.3,0l23.55,9.76c.2.08.39.18.56.31l33.97,23.55c.81.56,1.29,1.48,1.29,2.47s-.48,1.9-1.29,2.47l-33.97,23.55c-.18.12-.36.22-.56.31l-23.55,9.76c-.37.15-.76.23-1.15.23ZM38.41,57.21l22.11,9.16,22.11-9.16,30.15-20.9-30.15-20.9-22.11-9.16-22.11,9.16-30.15,20.9,30.15,20.9Z"/>
        <path class="cls-1" d="M60.52,72.61c-.39,0-.78-.08-1.15-.23l-23.55-9.76c-.74-.3-1.32-.89-1.62-1.62l-9.76-23.55c-.3-.73-.3-1.56,0-2.3l9.76-23.55c.3-.74.89-1.32,1.62-1.62L59.37.23c.74-.3,1.56-.3,2.3,0l23.55,9.76c.74.3,1.32.89,1.62,1.62l9.76,23.55c.3.73.3,1.56,0,2.3l-9.76,23.55c-.3.74-.89,1.32-1.62,1.62l-23.55,9.76c-.37.15-.76.23-1.15.23ZM39.26,57.56l21.26,8.8,21.26-8.8,8.8-21.26-8.8-21.26-21.26-8.8-21.26,8.8-8.8,21.26,8.8,21.26Z"/>
        <path class="cls-1" d="M60.52,60.56c-.39,0-.78-.08-1.15-.23l-15.03-6.23c-.74-.3-1.32-.89-1.62-1.62l-6.23-15.03c-.3-.73-.3-1.56,0-2.3l6.23-15.03c.3-.74.89-1.32,1.62-1.62l15.03-6.23c.73-.3,1.56-.3,2.3,0l15.03,6.23c.74.3,1.32.89,1.62,1.62l6.23,15.03c.3.73.3,1.56,0,2.3l-6.23,15.03c-.3.74-.89,1.32-1.62,1.62l-15.03,6.23c-.37.15-.76.23-1.15.23ZM47.78,49.04l12.74,5.27,12.74-5.27,5.28-12.74-5.28-12.74-12.74-5.27-12.74,5.27-5.28,12.74,5.28,12.74Z"/>
        <polygon class="cls-1" points="69.62 39.31 60.52 39.31 57.52 36.31 57.52 23.67 63.52 23.67 63.52 33.31 69.62 33.31 69.62 39.31"/>
      </g>
      <g>
        <path class="cls-1" d="M39.07,81.89l-4.24-4.24,4.69-4.69v-10.75h6v11.99c0,.8-.32,1.56-.88,2.12l-5.57,5.57Z"/>
        <path class="cls-1" d="M49.03,94.99l-4.24-4.24,6.33-6.33v-17.42h6v18.66c0,.8-.32,1.56-.88,2.12l-7.21,7.21Z"/>
        <path class="cls-1" d="M81.93,81.89l-5.57-5.57c-.56-.56-.88-1.33-.88-2.12v-11.99h6v10.75l4.69,4.69-4.24,4.24Z"/>
        <path class="cls-1" d="M71.97,94.99l-7.21-7.21c-.56-.56-.88-1.33-.88-2.12v-18.66h6v17.42l6.33,6.33-4.24,4.24Z"/>
        <path class="cls-1" d="M77.13,103.2c-1.87,0-3.73-.71-5.16-2.13-2.84-2.84-2.84-7.47,0-10.31,2.84-2.84,7.47-2.84,10.31,0,2.84,2.84,2.84,7.47,0,10.31-1.42,1.42-3.29,2.13-5.16,2.13ZM77.13,94.62c-.33,0-.66.13-.91.38-.5.5-.5,1.32,0,1.83s1.32.5,1.83,0c.5-.5.5-1.32,0-1.83-.25-.25-.58-.38-.91-.38Z"/>
        <path class="cls-1" d="M87.09,90.09c-1.87,0-3.73-.71-5.16-2.13-2.84-2.84-2.84-7.47,0-10.31,2.84-2.84,7.47-2.84,10.31,0,2.84,2.84,2.84,7.47,0,10.31-1.42,1.42-3.29,2.13-5.16,2.13ZM87.09,81.51c-.33,0-.66.13-.91.38-.5.5-.5,1.32,0,1.83s1.32.5,1.83,0c.5-.5.5-1.32,0-1.83-.25-.25-.58-.38-.91-.38Z"/>
        <path class="cls-1" d="M43.91,103.2c-1.87,0-3.73-.71-5.16-2.13-2.84-2.84-2.84-7.47,0-10.31,2.84-2.84,7.47-2.84,10.31,0,2.84,2.84,2.84,7.47,0,10.31-1.42,1.42-3.29,2.13-5.16,2.13ZM43.91,94.62c-.33,0-.66.13-.91.38-.5.5-.5,1.32,0,1.83s1.32.5,1.83,0,.5-1.32,0-1.83c-.25-.25-.58-.38-.91-.38Z"/>
        <path class="cls-1" d="M33.95,90.09c-1.87,0-3.73-.71-5.16-2.13-2.84-2.84-2.84-7.47,0-10.31,2.84-2.84,7.47-2.84,10.31,0,2.84,2.84,2.84,7.47,0,10.31-1.42,1.42-3.29,2.13-5.16,2.13ZM33.95,81.51c-.33,0-.66.13-.91.38-.5.5-.5,1.32,0,1.83.5.5,1.32.5,1.83,0,.5-.5.5-1.32,0-1.83-.25-.25-.58-.38-.91-.38Z"/>
      </g>
    </g>
  </g>
</svg>