<?xml version="1.0" encoding="UTF-8"?>
<svg id="Camada_2" data-name="Camada 2" xmlns="http://www.w3.org/2000/svg" viewBox="0 0 94.51 103.2">
  <defs>
    <style>
      .cls-1 {
        fill: #121c2d;
      }
    </style>
  </defs>
  <g id="Camada_1-2" data-name="Camada 1">
    <g>
      <path class="cls-1" d="M20.75,67.22h-10.4c-.8,0-1.56-.32-2.12-.88l-7.35-7.35c-.56-.56-.88-1.33-.88-2.12v-10.4c0-.8.32-1.56.88-2.12l7.35-7.35c.56-.56,1.33-.88,2.12-.88h10.4c.8,0,1.56.32,2.12.88l7.35,7.35c.56.56.88,1.33.88,2.12v10.4c0,.8-.32,1.56-.88,2.12l-7.35,7.35c-.56.56-1.33.88-2.12.88ZM11.6,61.22h7.92l5.6-5.6v-7.91l-5.6-5.6h-7.92l-5.6,5.6v7.91l5.6,5.6Z"/>
      <path class="cls-1" d="M84.16,31.11h-10.4c-.8,0-1.56-.32-2.12-.88l-7.35-7.35c-.56-.56-.88-1.33-.88-2.12v-10.4c0-.8.32-1.56.88-2.12l7.35-7.35c.56-.56,1.33-.88,2.12-.88h10.4c.8,0,1.56.32,2.12.88l7.35,7.35c.56.56.88,1.33.88,2.12v10.4c0,.8-.32,1.56-.88,2.12l-7.35,7.35c-.56.56-1.33.88-2.12.88ZM75,25.11h7.92l5.6-5.6v-7.91l-5.6-5.6h-7.92l-5.6,5.6v7.91l5.6,5.6Z"/>
      <path class="cls-1" d="M84.16,103.2h-10.4c-.8,0-1.56-.32-2.12-.88l-7.35-7.35c-.56-.56-.88-1.33-.88-2.12v-10.4c0-.8.32-1.56.88-2.12l7.35-7.35c.56-.56,1.33-.88,2.12-.88h10.4c.8,0,1.56.32,2.12.88l7.35,7.35c.56.56.88,1.33.88,2.12v10.4c0,.8-.32,1.56-.88,2.12l-7.35,7.35c-.56.56-1.33.88-2.12.88ZM75,97.2h7.92l5.6-5.6v-7.91l-5.6-5.6h-7.92l-5.6,5.6v7.91l5.6,5.6Z"/>
      <rect class="cls-1" x="23.7" y="30.7" width="47.52" height="6" transform="translate(-10.49 28.2) rotate(-29.95)"/>
      <rect class="cls-1" x="44.46" y="45.94" width="6" height="47.36" transform="translate(-36.39 77.88) rotate(-61.34)"/>
    </g>
  </g>
</svg>