<?xml version="1.0" encoding="UTF-8"?>
<svg id="Camada_2" data-name="Camada 2" xmlns="http://www.w3.org/2000/svg" viewBox="0 0 57.19 103.2">
  <defs>
    <style>
      .cls-1 {
        fill: #121c2d;
      }
    </style>
  </defs>
  <g id="Camada_1-2" data-name="Camada 1">
    <g>
      <path class="cls-1" d="M34.04,44.75h-10.9c-.8,0-1.56-.32-2.12-.88l-7.71-7.71c-.56-.56-.88-1.33-.88-2.12v-10.9c0-.8.32-1.56.88-2.12l7.71-7.71c.56-.56,1.33-.88,2.12-.88h10.9c.8,0,1.56.32,2.12.88l7.71,7.71c.56.56.88,1.33.88,2.12v10.9c0,.8-.32,1.56-.88,2.12l-7.71,7.71c-.56.56-1.33.88-2.12.88ZM24.39,38.75h8.41l5.95-5.95v-8.41l-5.95-5.95h-8.41l-5.95,5.95v8.41l5.95,5.95Z"/>
      <path class="cls-1" d="M28.6,103.2c-1.21,0-2.3-.73-2.77-1.84L.23,40.36c-.15-.37-.23-.76-.23-1.16v-21.2c0-.8.32-1.56.88-2.12L15.87.88c.56-.56,1.33-.88,2.12-.88h21.21c.8,0,1.56.32,2.12.88l14.99,14.99c.56.56.88,1.33.88,2.12v21.2c0,.4-.08.79-.23,1.16l-25.6,61c-.47,1.11-1.56,1.84-2.77,1.84ZM6,38.59l22.6,53.85,22.6-53.85v-19.36l-13.24-13.24h-18.72l-13.24,13.24v19.36Z"/>
    </g>
  </g>
</svg>