<?xml version="1.0" encoding="UTF-8"?>
<svg id="Camada_2" data-name="Camada 2" xmlns="http://www.w3.org/2000/svg" viewBox="0 0 51.59 42">
  <defs>
    <style>
      .cls-1 {
        fill: #121c2d;
      }

      .cls-2 {
        fill: #b4e01e;
      }
    </style>
  </defs>
  <g id="Camada_1-2" data-name="Camada 1">
    <g>
      <path class="cls-2" d="M0,34.92c1.05.12,2.11.18,3.19.18s2.14-.06,3.19-.18c-1.04.08-2.1.12-3.19.12s-2.15-.04-3.19-.12Z"/>
      <polygon class="cls-2" points="39.11 42 22.06 42 9.59 29.53 9.59 12.47 22.06 0 39.11 0 51.59 12.47 51.59 29.53 39.11 42"/>
      <g>
        <path class="cls-1" d="M30.59,14.23c-3.75,0-6.79,3.04-6.79,6.79s3.04,6.79,6.79,6.79,6.79-3.04,6.79-6.79-3.04-6.79-6.79-6.79ZM30.59,25.43c-2.43,0-4.41-1.97-4.41-4.41s1.97-4.41,4.41-4.41,4.41,1.97,4.41,4.41-1.97,4.41-4.41,4.41Z"/>
        <circle class="cls-1" cx="37.64" cy="13.96" r="1.59"/>
        <path class="cls-1" d="M43.73,15.57c-.06-1.41-.29-2.37-.61-3.21-.34-.87-.79-1.61-1.53-2.34-.74-.73-1.47-1.19-2.34-1.53-.84-.33-1.8-.55-3.21-.61-1.41-.06-1.86-.08-5.45-.08s-4.04.02-5.45.08c-1.41.06-2.37.29-3.21.61-.87.34-1.61.79-2.34,1.53-.74.74-1.19,1.47-1.53,2.34-.33.84-.55,1.8-.61,3.21-.06,1.41-.08,1.86-.08,5.45s.02,4.04.08,5.45c.06,1.41.29,2.37.61,3.21.34.87.79,1.61,1.53,2.34.74.74,1.47,1.19,2.34,1.53.84.33,1.8.55,3.21.61,1.41.06,1.86.08,5.45.08s4.04-.02,5.45-.08c1.41-.06,2.37-.29,3.21-.61.87-.34,1.61-.79,2.34-1.53.74-.73,1.19-1.47,1.53-2.34.33-.84.55-1.8.61-3.21.06-1.41.08-1.86.08-5.45s-.02-4.04-.08-5.45ZM41.35,26.36c-.06,1.29-.27,1.99-.46,2.46-.24.62-.53,1.06-.99,1.52-.46.46-.9.75-1.52.99-.47.18-1.17.4-2.46.46-1.39.06-1.81.08-5.34.08s-3.95-.01-5.34-.08c-1.29-.06-1.99-.27-2.46-.46-.62-.24-1.06-.53-1.52-.99-.46-.46-.75-.9-.99-1.52-.18-.47-.4-1.17-.46-2.46-.06-1.39-.08-1.81-.08-5.34s.01-3.95.08-5.34c.06-1.29.27-1.99.46-2.46.24-.62.53-1.06.99-1.52s.9-.75,1.52-.99c.47-.18,1.17-.4,2.46-.46,1.39-.06,1.81-.08,5.34-.08s3.95.01,5.34.08c1.29.06,1.99.27,2.46.46.62.24,1.06.53,1.52.99.46.46.75.9.99,1.52.18.47.4,1.17.46,2.46.06,1.39.08,1.81.08,5.34s-.01,3.95-.08,5.34Z"/>
      </g>
    </g>
  </g>
</svg>