<?xml version="1.0" encoding="UTF-8"?>
<svg id="Camada_2" data-name="Camada 2" xmlns="http://www.w3.org/2000/svg" viewBox="0 0 1648 170.61">
  <defs>
    <style>
      .cls-1 {
        fill: #b4e01e;
      }
    </style>
  </defs>
  <g id="Camada_1-2" data-name="Camada 1">
    <g>
      <g>
        <path class="cls-1" d="M547.22,24.5h-78.04c-21.05,0-38.11,17.06-38.11,38.11v45.37c0,21.05,17.06,38.11,38.11,38.11h78.04c21.05,0,38.11-17.06,38.11-38.11v-45.37c0-21.05-17.06-38.11-38.11-38.11ZM554.48,115.25h-92.56v-59.89h92.56v59.89Z"/>
        <path class="cls-1" d="M1296.31,85.08c7.93-6.17,13-15.64,13-26.22,0-18.94-16.08-34.36-37.23-34.36h-115.94v121.6h115.94c21.15,0,38.33-15.42,38.33-34.37,0-10.79-5.51-20.27-14.1-26.66ZM1278.69,115.25h-90.83v-14.52h90.83v14.52ZM1278.69,69.88h-90.83v-14.52h90.83v14.52Z"/>
        <path class="cls-1" d="M261.36,62.62v45.37c0,21.05,17.06,38.11,38.11,38.11h116.16v-30.85h-123.42v-59.89h123.42v-30.85h-116.16c-21.05,0-38.11,17.06-38.11,38.11Z"/>
        <path class="cls-1" d="M770.46,62.62v45.37c0,21.05,17.06,38.11,38.11,38.11h116.16v-30.85h-123.42v-14.52h123.42v-30.85h-123.42v-14.37h123.42v-31h-116.16c-21.05,0-38.11,17.06-38.11,38.11Z"/>
        <rect class="cls-1" x="1109.86" y="24.5" width="30.85" height="121.6"/>
        <path class="cls-1" d="M1609.89,24.5h-110.43v30.85h116.82v14.09h-84.22c-21.37,0-38.33,17.18-38.33,38.33s16.96,38.33,38.33,38.33h115.94V62.62c0-21.05-17.06-38.11-38.11-38.11ZM1616.28,115.25h-90.83v-14.95h90.83v14.95Z"/>
        <path class="cls-1" d="M1442,24.5h-116.16v121.6h30.85v-32.59h92.56v32.59h30.86v-25.11c0-9.25-4.41-17.18-11.02-22.47,6.61-5.29,11.02-13.22,11.02-22.47v-13.43c0-21.05-17.06-38.11-38.11-38.11ZM1449.26,83.53h-92.56v-29.04h92.56v29.04Z"/>
        <path class="cls-1" d="M716.92,24.5h-116.16v121.6h30.85v-32.59h92.56v32.59h30.86v-25.11c0-9.25-4.41-17.18-11.02-22.47,6.61-5.29,11.02-13.22,11.02-22.47v-13.43c0-21.05-17.06-38.11-38.11-38.11ZM724.18,83.53h-92.56v-29.04h92.56v29.04Z"/>
        <path class="cls-1" d="M940.16,62.62v83.49h31.72v-44.94h122.55v-30.85h-122.55v-14.95h122.55v-30.85h-116.16c-21.05,0-38.11,17.06-38.11,38.11Z"/>
      </g>
      <path class="cls-1" d="M95.07,31.49L63.58,0l-21.82,21.82,33.61,33.61v14.45H0v30.85h75.38v14.45l-33.61,33.61,21.82,21.82,31.49-31.49c7.15-7.15,11.16-16.84,11.16-26.95v-53.73c0-10.11-4.02-19.8-11.16-26.95ZM232.32,100.73v-30.85h-75.38v-14.45l33.61-33.61L168.74,0l-31.49,31.49c-7.15,7.15-11.16,16.84-11.16,26.95v53.73c0,10.11,4.02,19.8,11.16,26.95l31.49,31.49,21.82-21.82-33.61-33.61v-14.45h75.38Z"/>
    </g>
  </g>
</svg>