<?xml version="1.0" encoding="UTF-8"?>
<svg id="Camada_2" data-name="Camada 2" xmlns="http://www.w3.org/2000/svg" viewBox="0 0 1957.68 489.94">
  <defs>
    <style>
      .cls-1 {
        fill: #121c2d;
      }
    </style>
  </defs>
  <g id="Camada_1-2" data-name="Camada 1">
    <g>
      <g>
        <g>
          <g>
            <path class="cls-1" d="M272.99,202.66l13.67-13.67-21.06-21.06v-9.05s47.23,0,47.23,0v-19.33h-47.23s0-9.05,0-9.05l21.06-21.06-13.67-13.67-19.73,19.73c-4.48,4.48-6.99,10.55-6.99,16.89v33.67c0,6.33,2.52,12.41,6.99,16.89l19.73,19.73Z"/>
            <path class="cls-1" d="M167.26,139.54v19.33h47.23s0,9.05,0,9.05l-21.06,21.06,13.67,13.67,19.73-19.73c4.48-4.48,6.99-10.55,6.99-16.89v-33.67c0-6.33-2.52-12.41-6.99-16.89l-19.73-19.73-13.67,13.67,21.06,21.06v9.05s-47.23,0-47.23,0Z"/>
          </g>
          <path class="cls-1" d="M249.35,43.78v19.33h47.23s0,9.05,0,9.05l-21.06,21.06,13.67,13.67,19.73-19.73c4.48-4.48,6.99-10.55,6.99-16.89v-33.67c0-6.33-2.52-12.41-6.99-16.89L289.19,0l-13.67,13.67,21.06,21.06v9.05s-47.23,0-47.23,0Z"/>
          <path class="cls-1" d="M66.56,43.78v19.33H19.33s0,9.05,0,9.05l21.06,21.06-13.67,13.67-19.73-19.73C2.52,82.69,0,76.62,0,70.28v-33.67c0-6.33,2.52-12.41,6.99-16.89L26.72,0l13.67,13.67-21.06,21.06v9.05s47.23,0,47.23,0Z"/>
          <path class="cls-1" d="M249.35,235.3v19.33h47.23s0,9.05,0,9.05l-21.06,21.06,13.67,13.67,19.73-19.73c4.48-4.48,6.99-10.55,6.99-16.89v-33.67c0-6.33-2.52-12.41-6.99-16.89l-19.73-19.73-13.67,13.67,21.06,21.06v9.05s-47.23,0-47.23,0Z"/>
          <path class="cls-1" d="M66.56,235.3v19.33H19.33s0,9.05,0,9.05l21.06,21.06-13.67,13.67-19.73-19.73C2.52,274.21,0,268.14,0,261.8v-33.67c0-6.33,2.52-12.41,6.99-16.89l19.73-19.73,13.67,13.67-21.06,21.06v9.05s47.23,0,47.23,0Z"/>
          <g>
            <path class="cls-1" d="M108.81,202.66l13.67-13.67-21.06-21.06v-9.05s47.23,0,47.23,0v-19.33h-47.23s0-9.05,0-9.05l21.06-21.06-13.67-13.67-19.73,19.73c-4.48,4.48-6.99,10.55-6.99,16.89v33.67c0,6.33,2.52,12.41,6.99,16.89l19.73,19.73Z"/>
            <path class="cls-1" d="M3.09,139.54v19.33h47.23s0,9.05,0,9.05l-21.06,21.06,13.67,13.67,19.73-19.73c4.48-4.48,6.99-10.55,6.99-16.89v-33.67c0-6.33-2.52-12.41-6.99-16.89l-19.73-19.73-13.67,13.67,21.06,21.06v9.05s-47.23,0-47.23,0Z"/>
          </g>
          <g>
            <path class="cls-1" d="M190.9,106.9l13.67-13.67-21.06-21.06v-9.05s47.23,0,47.23,0v-19.33h-47.23s0-9.05,0-9.05l21.06-21.06L190.9,0l-19.73,19.73c-4.48,4.48-6.99,10.55-6.99,16.89v33.67c0,6.33,2.52,12.41,6.99,16.89l19.73,19.73Z"/>
            <path class="cls-1" d="M85.17,43.78v19.33h47.23s0,9.05,0,9.05l-21.06,21.06,13.67,13.67,19.73-19.73c4.48-4.48,6.99-10.55,6.99-16.89v-33.67c0-6.33-2.52-12.41-6.99-16.89L125.01,0l-13.67,13.67,21.06,21.06v9.05s-47.23,0-47.23,0Z"/>
          </g>
          <g>
            <path class="cls-1" d="M190.9,298.42l13.67-13.67-21.06-21.06v-9.05s47.23,0,47.23,0v-19.33h-47.23s0-9.05,0-9.05l21.06-21.06-13.67-13.67-19.73,19.73c-4.48,4.48-6.99,10.55-6.99,16.89v33.67c0,6.33,2.52,12.41,6.99,16.89l19.73,19.73Z"/>
            <path class="cls-1" d="M85.17,235.3v19.33h47.23s0,9.05,0,9.05l-21.06,21.06,13.67,13.67,19.73-19.73c4.48-4.48,6.99-10.55,6.99-16.89v-33.67c0-6.33-2.52-12.41-6.99-16.89l-19.73-19.73-13.67,13.67,21.06,21.06v9.05s-47.23,0-47.23,0Z"/>
          </g>
        </g>
        <g>
          <g>
            <path class="cls-1" d="M601.34,202.66l13.67-13.67-21.06-21.06v-9.05s47.23,0,47.23,0v-19.33h-47.23s0-9.05,0-9.05l21.06-21.06-13.67-13.67-19.73,19.73c-4.48,4.48-6.99,10.55-6.99,16.89v33.67c0,6.33,2.52,12.41,6.99,16.89l19.73,19.73Z"/>
            <path class="cls-1" d="M495.61,139.54v19.33h47.23s0,9.05,0,9.05l-21.06,21.06,13.67,13.67,19.73-19.73c4.48-4.48,6.99-10.55,6.99-16.89v-33.67c0-6.33-2.52-12.41-6.99-16.89l-19.73-19.73-13.67,13.67,21.06,21.06v9.05s-47.23,0-47.23,0Z"/>
          </g>
          <path class="cls-1" d="M577.7,43.78v19.33h47.23s0,9.05,0,9.05l-21.06,21.06,13.67,13.67,19.73-19.73c4.48-4.48,6.99-10.55,6.99-16.89v-33.67c0-6.33-2.52-12.41-6.99-16.89L617.54,0l-13.67,13.67,21.06,21.06v9.05s-47.23,0-47.23,0Z"/>
          <path class="cls-1" d="M394.92,43.78v19.33h-47.23s0,9.05,0,9.05l21.06,21.06-13.67,13.67-19.73-19.73c-4.48-4.48-6.99-10.55-6.99-16.89v-33.67c0-6.33,2.52-12.41,6.99-16.89L355.08,0l13.67,13.67-21.06,21.06v9.05s47.23,0,47.23,0Z"/>
          <path class="cls-1" d="M577.7,235.3v19.33h47.23s0,9.05,0,9.05l-21.06,21.06,13.67,13.67,19.73-19.73c4.48-4.48,6.99-10.55,6.99-16.89v-33.67c0-6.33-2.52-12.41-6.99-16.89l-19.73-19.73-13.67,13.67,21.06,21.06v9.05s-47.23,0-47.23,0Z"/>
          <path class="cls-1" d="M394.92,235.3v19.33h-47.23s0,9.05,0,9.05l21.06,21.06-13.67,13.67-19.73-19.73c-4.48-4.48-6.99-10.55-6.99-16.89v-33.67c0-6.33,2.52-12.41,6.99-16.89l19.73-19.73,13.67,13.67-21.06,21.06v9.05s47.23,0,47.23,0Z"/>
          <g>
            <path class="cls-1" d="M437.17,202.66l13.67-13.67-21.06-21.06v-9.05s47.23,0,47.23,0v-19.33h-47.23s0-9.05,0-9.05l21.06-21.06-13.67-13.67-19.73,19.73c-4.48,4.48-6.99,10.55-6.99,16.89v33.67c0,6.33,2.52,12.41,6.99,16.89l19.73,19.73Z"/>
            <path class="cls-1" d="M331.44,139.54v19.33h47.23s0,9.05,0,9.05l-21.06,21.06,13.67,13.67,19.73-19.73c4.48-4.48,6.99-10.55,6.99-16.89v-33.67c0-6.33-2.52-12.41-6.99-16.89l-19.73-19.73-13.67,13.67,21.06,21.06v9.05s-47.23,0-47.23,0Z"/>
          </g>
          <g>
            <path class="cls-1" d="M519.25,106.9l13.67-13.67-21.06-21.06v-9.05s47.23,0,47.23,0v-19.33h-47.23s0-9.05,0-9.05l21.06-21.06L519.25,0l-19.73,19.73c-4.48,4.48-6.99,10.55-6.99,16.89v33.67c0,6.33,2.52,12.41,6.99,16.89l19.73,19.73Z"/>
            <path class="cls-1" d="M413.53,43.78v19.33h47.23s0,9.05,0,9.05l-21.06,21.06,13.67,13.67,19.73-19.73c4.48-4.48,6.99-10.55,6.99-16.89v-33.67c0-6.33-2.52-12.41-6.99-16.89L453.36,0l-13.67,13.67,21.06,21.06v9.05s-47.23,0-47.23,0Z"/>
          </g>
          <g>
            <path class="cls-1" d="M519.25,298.42l13.67-13.67-21.06-21.06v-9.05s47.23,0,47.23,0v-19.33h-47.23s0-9.05,0-9.05l21.06-21.06-13.67-13.67-19.73,19.73c-4.48,4.48-6.99,10.55-6.99,16.89v33.67c0,6.33,2.52,12.41,6.99,16.89l19.73,19.73Z"/>
            <path class="cls-1" d="M413.53,235.3v19.33h47.23s0,9.05,0,9.05l-21.06,21.06,13.67,13.67,19.73-19.73c4.48-4.48,6.99-10.55,6.99-16.89v-33.67c0-6.33-2.52-12.41-6.99-16.89l-19.73-19.73-13.67,13.67,21.06,21.06v9.05s-47.23,0-47.23,0Z"/>
          </g>
        </g>
        <g>
          <path class="cls-1" d="M723.27,43.78v19.33h-47.23s0,9.05,0,9.05l21.06,21.06-13.67,13.67-19.73-19.73c-4.48-4.48-6.99-10.55-6.99-16.89v-33.67c0-6.33,2.52-12.41,6.99-16.89L683.43,0l13.67,13.67-21.06,21.06v9.05s47.23,0,47.23,0Z"/>
          <path class="cls-1" d="M723.27,235.3v19.33h-47.23s0,9.05,0,9.05l21.06,21.06-13.67,13.67-19.73-19.73c-4.48-4.48-6.99-10.55-6.99-16.89v-33.67c0-6.33,2.52-12.41,6.99-16.89l19.73-19.73,13.67,13.67-21.06,21.06v9.05s47.23,0,47.23,0Z"/>
          <g>
            <path class="cls-1" d="M765.52,202.66l13.67-13.67-21.06-21.06v-9.05s47.23,0,47.23,0v-19.33h-47.23s0-9.05,0-9.05l21.06-21.06-13.67-13.67-19.73,19.73c-4.48,4.48-6.99,10.55-6.99,16.89v33.67c0,6.33,2.52,12.41,6.99,16.89l19.73,19.73Z"/>
            <path class="cls-1" d="M659.79,139.54v19.33h47.23s0,9.05,0,9.05l-21.06,21.06,13.67,13.67,19.73-19.73c4.48-4.48,6.99-10.55,6.99-16.89v-33.67c0-6.33-2.52-12.41-6.99-16.89l-19.73-19.73-13.67,13.67,21.06,21.06v9.05s-47.23,0-47.23,0Z"/>
          </g>
          <path class="cls-1" d="M741.88,43.78v19.33h47.23s0,9.05,0,9.05l-21.06,21.06,13.67,13.67,19.73-19.73c4.48-4.48,6.99-10.55,6.99-16.89v-33.67c0-6.33-2.52-12.41-6.99-16.89L781.72,0l-13.67,13.67,21.06,21.06v9.05s-47.23,0-47.23,0Z"/>
          <path class="cls-1" d="M741.88,235.3v19.33h47.23s0,9.05,0,9.05l-21.06,21.06,13.67,13.67,19.73-19.73c4.48-4.48,6.99-10.55,6.99-16.89v-33.67c0-6.33-2.52-12.41-6.99-16.89l-19.73-19.73-13.67,13.67,21.06,21.06v9.05s-47.23,0-47.23,0Z"/>
        </g>
        <g>
          <g>
            <path class="cls-1" d="M272.99,394.18l13.67-13.67-21.06-21.06v-9.05s47.23,0,47.23,0v-19.33h-47.23s0-9.05,0-9.05l21.06-21.06-13.67-13.67-19.73,19.73c-4.48,4.48-6.99,10.55-6.99,16.89v33.67c0,6.33,2.52,12.41,6.99,16.89l19.73,19.73Z"/>
            <path class="cls-1" d="M167.26,331.06v19.33h47.23s0,9.05,0,9.05l-21.06,21.06,13.67,13.67,19.73-19.73c4.48-4.48,6.99-10.55,6.99-16.89v-33.67c0-6.33-2.52-12.41-6.99-16.89l-19.73-19.73-13.67,13.67,21.06,21.06v9.05s-47.23,0-47.23,0Z"/>
          </g>
          <path class="cls-1" d="M249.35,426.82v19.33h47.23s0,9.05,0,9.05l-21.06,21.06,13.67,13.67,19.73-19.73c4.48-4.48,6.99-10.55,6.99-16.89v-33.67c0-6.33-2.52-12.41-6.99-16.89l-19.73-19.73-13.67,13.67,21.06,21.06v9.05s-47.23,0-47.23,0Z"/>
          <path class="cls-1" d="M66.56,426.82v19.33H19.33s0,9.05,0,9.05l21.06,21.06-13.67,13.67-19.73-19.73C2.52,465.73,0,459.66,0,453.32v-33.67c0-6.33,2.52-12.41,6.99-16.89l19.73-19.73,13.67,13.67-21.06,21.06v9.05s47.23,0,47.23,0Z"/>
          <g>
            <path class="cls-1" d="M108.81,394.18l13.67-13.67-21.06-21.06v-9.05s47.23,0,47.23,0v-19.33h-47.23s0-9.05,0-9.05l21.06-21.06-13.67-13.67-19.73,19.73c-4.48,4.48-6.99,10.55-6.99,16.89v33.67c0,6.33,2.52,12.41,6.99,16.89l19.73,19.73Z"/>
            <path class="cls-1" d="M3.09,331.06v19.33h47.23s0,9.05,0,9.05l-21.06,21.06,13.67,13.67,19.73-19.73c4.48-4.48,6.99-10.55,6.99-16.89v-33.67c0-6.33-2.52-12.41-6.99-16.89l-19.73-19.73-13.67,13.67,21.06,21.06v9.05s-47.23,0-47.23,0Z"/>
          </g>
          <g>
            <path class="cls-1" d="M190.9,489.94l13.67-13.67-21.06-21.06v-9.05s47.23,0,47.23,0v-19.33h-47.23s0-9.05,0-9.05l21.06-21.06-13.67-13.67-19.73,19.73c-4.48,4.48-6.99,10.55-6.99,16.89v33.67c0,6.33,2.52,12.41,6.99,16.89l19.73,19.73Z"/>
            <path class="cls-1" d="M85.17,426.82v19.33h47.23s0,9.05,0,9.05l-21.06,21.06,13.67,13.67,19.73-19.73c4.48-4.48,6.99-10.55,6.99-16.89v-33.67c0-6.33-2.52-12.41-6.99-16.89l-19.73-19.73-13.67,13.67,21.06,21.06v9.05s-47.23,0-47.23,0Z"/>
          </g>
        </g>
        <g>
          <g>
            <path class="cls-1" d="M601.34,394.18l13.67-13.67-21.06-21.06v-9.05s47.23,0,47.23,0v-19.33h-47.23s0-9.05,0-9.05l21.06-21.06-13.67-13.67-19.73,19.73c-4.48,4.48-6.99,10.55-6.99,16.89v33.67c0,6.33,2.52,12.41,6.99,16.89l19.73,19.73Z"/>
            <path class="cls-1" d="M495.61,331.06v19.33h47.23s0,9.05,0,9.05l-21.06,21.06,13.67,13.67,19.73-19.73c4.48-4.48,6.99-10.55,6.99-16.89v-33.67c0-6.33-2.52-12.41-6.99-16.89l-19.73-19.73-13.67,13.67,21.06,21.06v9.05s-47.23,0-47.23,0Z"/>
          </g>
          <path class="cls-1" d="M577.7,426.82v19.33h47.23s0,9.05,0,9.05l-21.06,21.06,13.67,13.67,19.73-19.73c4.48-4.48,6.99-10.55,6.99-16.89v-33.67c0-6.33-2.52-12.41-6.99-16.89l-19.73-19.73-13.67,13.67,21.06,21.06v9.05s-47.23,0-47.23,0Z"/>
          <path class="cls-1" d="M394.92,426.82v19.33h-47.23s0,9.05,0,9.05l21.06,21.06-13.67,13.67-19.73-19.73c-4.48-4.48-6.99-10.55-6.99-16.89v-33.67c0-6.33,2.52-12.41,6.99-16.89l19.73-19.73,13.67,13.67-21.06,21.06v9.05s47.23,0,47.23,0Z"/>
          <g>
            <path class="cls-1" d="M437.17,394.18l13.67-13.67-21.06-21.06v-9.05s47.23,0,47.23,0v-19.33h-47.23s0-9.05,0-9.05l21.06-21.06-13.67-13.67-19.73,19.73c-4.48,4.48-6.99,10.55-6.99,16.89v33.67c0,6.33,2.52,12.41,6.99,16.89l19.73,19.73Z"/>
            <path class="cls-1" d="M331.44,331.06v19.33h47.23s0,9.05,0,9.05l-21.06,21.06,13.67,13.67,19.73-19.73c4.48-4.48,6.99-10.55,6.99-16.89v-33.67c0-6.33-2.52-12.41-6.99-16.89l-19.73-19.73-13.67,13.67,21.06,21.06v9.05s-47.23,0-47.23,0Z"/>
          </g>
          <g>
            <path class="cls-1" d="M519.25,489.94l13.67-13.67-21.06-21.06v-9.05s47.23,0,47.23,0v-19.33h-47.23s0-9.05,0-9.05l21.06-21.06-13.67-13.67-19.73,19.73c-4.48,4.48-6.99,10.55-6.99,16.89v33.67c0,6.33,2.52,12.41,6.99,16.89l19.73,19.73Z"/>
            <path class="cls-1" d="M413.53,426.82v19.33h47.23s0,9.05,0,9.05l-21.06,21.06,13.67,13.67,19.73-19.73c4.48-4.48,6.99-10.55,6.99-16.89v-33.67c0-6.33-2.52-12.41-6.99-16.89l-19.73-19.73-13.67,13.67,21.06,21.06v9.05s-47.23,0-47.23,0Z"/>
          </g>
        </g>
        <g>
          <path class="cls-1" d="M723.27,426.82v19.33h-47.23s0,9.05,0,9.05l21.06,21.06-13.67,13.67-19.73-19.73c-4.48-4.48-6.99-10.55-6.99-16.89v-33.67c0-6.33,2.52-12.41,6.99-16.89l19.73-19.73,13.67,13.67-21.06,21.06v9.05s47.23,0,47.23,0Z"/>
          <g>
            <path class="cls-1" d="M765.52,394.18l13.67-13.67-21.06-21.06v-9.05s47.23,0,47.23,0v-19.33h-47.23s0-9.05,0-9.05l21.06-21.06-13.67-13.67-19.73,19.73c-4.48,4.48-6.99,10.55-6.99,16.89v33.67c0,6.33,2.52,12.41,6.99,16.89l19.73,19.73Z"/>
            <path class="cls-1" d="M659.79,331.06v19.33h47.23s0,9.05,0,9.05l-21.06,21.06,13.67,13.67,19.73-19.73c4.48-4.48,6.99-10.55,6.99-16.89v-33.67c0-6.33-2.52-12.41-6.99-16.89l-19.73-19.73-13.67,13.67,21.06,21.06v9.05s-47.23,0-47.23,0Z"/>
          </g>
          <path class="cls-1" d="M741.88,426.82v19.33h47.23s0,9.05,0,9.05l-21.06,21.06,13.67,13.67,19.73-19.73c4.48-4.48,6.99-10.55,6.99-16.89v-33.67c0-6.33-2.52-12.41-6.99-16.89l-19.73-19.73-13.67,13.67,21.06,21.06v9.05s-47.23,0-47.23,0Z"/>
        </g>
      </g>
      <g>
        <g>
          <g>
            <path class="cls-1" d="M1093.87,202.66l13.67-13.67-21.06-21.06v-9.05s47.23,0,47.23,0v-19.33h-47.23s0-9.05,0-9.05l21.06-21.06-13.67-13.67-19.73,19.73c-4.48,4.48-6.99,10.55-6.99,16.89v33.67c0,6.33,2.52,12.41,6.99,16.89l19.73,19.73Z"/>
            <path class="cls-1" d="M988.14,139.54v19.33h47.23s0,9.05,0,9.05l-21.06,21.06,13.67,13.67,19.73-19.73c4.48-4.48,6.99-10.55,6.99-16.89v-33.67c0-6.33-2.52-12.41-6.99-16.89l-19.73-19.73-13.67,13.67,21.06,21.06v9.05s-47.23,0-47.23,0Z"/>
          </g>
          <path class="cls-1" d="M1070.23,43.78v19.33h47.23s0,9.05,0,9.05l-21.06,21.06,13.67,13.67,19.73-19.73c4.48-4.48,6.99-10.55,6.99-16.89v-33.67c0-6.33-2.52-12.41-6.99-16.89L1110.07,0l-13.67,13.67,21.06,21.06v9.05s-47.23,0-47.23,0Z"/>
          <path class="cls-1" d="M887.44,43.78v19.33h-47.23s0,9.05,0,9.05l21.06,21.06-13.67,13.67-19.73-19.73c-4.48-4.48-6.99-10.55-6.99-16.89v-33.67c0-6.33,2.52-12.41,6.99-16.89L847.61,0l13.67,13.67-21.06,21.06v9.05s47.23,0,47.23,0Z"/>
          <path class="cls-1" d="M1070.23,235.3v19.33h47.23s0,9.05,0,9.05l-21.06,21.06,13.67,13.67,19.73-19.73c4.48-4.48,6.99-10.55,6.99-16.89v-33.67c0-6.33-2.52-12.41-6.99-16.89l-19.73-19.73-13.67,13.67,21.06,21.06v9.05s-47.23,0-47.23,0Z"/>
          <path class="cls-1" d="M887.44,235.3v19.33h-47.23s0,9.05,0,9.05l21.06,21.06-13.67,13.67-19.73-19.73c-4.48-4.48-6.99-10.55-6.99-16.89v-33.67c0-6.33,2.52-12.41,6.99-16.89l19.73-19.73,13.67,13.67-21.06,21.06v9.05s47.23,0,47.23,0Z"/>
          <g>
            <path class="cls-1" d="M929.69,202.66l13.67-13.67-21.06-21.06v-9.05s47.23,0,47.23,0v-19.33h-47.23s0-9.05,0-9.05l21.06-21.06-13.67-13.67-19.73,19.73c-4.48,4.48-6.99,10.55-6.99,16.89v33.67c0,6.33,2.52,12.41,6.99,16.89l19.73,19.73Z"/>
            <path class="cls-1" d="M823.97,139.54v19.33h47.23s0,9.05,0,9.05l-21.06,21.06,13.67,13.67,19.73-19.73c4.48-4.48,6.99-10.55,6.99-16.89v-33.67c0-6.33-2.52-12.41-6.99-16.89l-19.73-19.73-13.67,13.67,21.06,21.06v9.05s-47.23,0-47.23,0Z"/>
          </g>
          <g>
            <path class="cls-1" d="M1011.78,106.9l13.67-13.67-21.06-21.06v-9.05s47.23,0,47.23,0v-19.33h-47.23s0-9.05,0-9.05l21.06-21.06-13.67-13.67-19.73,19.73c-4.48,4.48-6.99,10.55-6.99,16.89v33.67c0,6.33,2.52,12.41,6.99,16.89l19.73,19.73Z"/>
            <path class="cls-1" d="M906.05,43.78v19.33h47.23s0,9.05,0,9.05l-21.06,21.06,13.67,13.67,19.73-19.73c4.48-4.48,6.99-10.55,6.99-16.89v-33.67c0-6.33-2.52-12.41-6.99-16.89L945.89,0l-13.67,13.67,21.06,21.06v9.05s-47.23,0-47.23,0Z"/>
          </g>
          <g>
            <path class="cls-1" d="M1011.78,298.42l13.67-13.67-21.06-21.06v-9.05s47.23,0,47.23,0v-19.33h-47.23s0-9.05,0-9.05l21.06-21.06-13.67-13.67-19.73,19.73c-4.48,4.48-6.99,10.55-6.99,16.89v33.67c0,6.33,2.52,12.41,6.99,16.89l19.73,19.73Z"/>
            <path class="cls-1" d="M906.05,235.3v19.33h47.23s0,9.05,0,9.05l-21.06,21.06,13.67,13.67,19.73-19.73c4.48-4.48,6.99-10.55,6.99-16.89v-33.67c0-6.33-2.52-12.41-6.99-16.89l-19.73-19.73-13.67,13.67,21.06,21.06v9.05s-47.23,0-47.23,0Z"/>
          </g>
        </g>
        <g>
          <g>
            <path class="cls-1" d="M1422.22,202.66l13.67-13.67-21.06-21.06v-9.05s47.23,0,47.23,0v-19.33h-47.23s0-9.05,0-9.05l21.06-21.06-13.67-13.67-19.73,19.73c-4.48,4.48-6.99,10.55-6.99,16.89v33.67c0,6.33,2.52,12.41,6.99,16.89l19.73,19.73Z"/>
            <path class="cls-1" d="M1316.5,139.54v19.33h47.23s0,9.05,0,9.05l-21.06,21.06,13.67,13.67,19.73-19.73c4.48-4.48,6.99-10.55,6.99-16.89v-33.67c0-6.33-2.52-12.41-6.99-16.89l-19.73-19.73-13.67,13.67,21.06,21.06v9.05s-47.23,0-47.23,0Z"/>
          </g>
          <path class="cls-1" d="M1398.58,43.78v19.33h47.23s0,9.05,0,9.05l-21.06,21.06,13.67,13.67,19.73-19.73c4.48-4.48,6.99-10.55,6.99-16.89v-33.67c0-6.33-2.52-12.41-6.99-16.89L1438.42,0l-13.67,13.67,21.06,21.06v9.05s-47.23,0-47.23,0Z"/>
          <path class="cls-1" d="M1215.8,43.78v19.33h-47.23s0,9.05,0,9.05l21.06,21.06-13.67,13.67-19.73-19.73c-4.48-4.48-6.99-10.55-6.99-16.89v-33.67c0-6.33,2.52-12.41,6.99-16.89L1175.96,0l13.67,13.67-21.06,21.06v9.05s47.23,0,47.23,0Z"/>
          <path class="cls-1" d="M1398.58,235.3v19.33h47.23s0,9.05,0,9.05l-21.06,21.06,13.67,13.67,19.73-19.73c4.48-4.48,6.99-10.55,6.99-16.89v-33.67c0-6.33-2.52-12.41-6.99-16.89l-19.73-19.73-13.67,13.67,21.06,21.06v9.05s-47.23,0-47.23,0Z"/>
          <path class="cls-1" d="M1215.8,235.3v19.33h-47.23s0,9.05,0,9.05l21.06,21.06-13.67,13.67-19.73-19.73c-4.48-4.48-6.99-10.55-6.99-16.89v-33.67c0-6.33,2.52-12.41,6.99-16.89l19.73-19.73,13.67,13.67-21.06,21.06v9.05s47.23,0,47.23,0Z"/>
          <g>
            <path class="cls-1" d="M1258.05,202.66l13.67-13.67-21.06-21.06v-9.05s47.23,0,47.23,0v-19.33h-47.23s0-9.05,0-9.05l21.06-21.06-13.67-13.67-19.73,19.73c-4.48,4.48-6.99,10.55-6.99,16.89v33.67c0,6.33,2.52,12.41,6.99,16.89l19.73,19.73Z"/>
            <path class="cls-1" d="M1152.32,139.54v19.33h47.23s0,9.05,0,9.05l-21.06,21.06,13.67,13.67,19.73-19.73c4.48-4.48,6.99-10.55,6.99-16.89v-33.67c0-6.33-2.52-12.41-6.99-16.89l-19.73-19.73-13.67,13.67,21.06,21.06v9.05s-47.23,0-47.23,0Z"/>
          </g>
          <g>
            <path class="cls-1" d="M1340.13,106.9l13.67-13.67-21.06-21.06v-9.05s47.23,0,47.23,0v-19.33h-47.23s0-9.05,0-9.05l21.06-21.06-13.67-13.67-19.73,19.73c-4.48,4.48-6.99,10.55-6.99,16.89v33.67c0,6.33,2.52,12.41,6.99,16.89l19.73,19.73Z"/>
            <path class="cls-1" d="M1234.41,43.78v19.33h47.23s0,9.05,0,9.05l-21.06,21.06,13.67,13.67,19.73-19.73c4.48-4.48,6.99-10.55,6.99-16.89v-33.67c0-6.33-2.52-12.41-6.99-16.89L1274.25,0l-13.67,13.67,21.06,21.06v9.05s-47.23,0-47.23,0Z"/>
          </g>
          <g>
            <path class="cls-1" d="M1340.13,298.42l13.67-13.67-21.06-21.06v-9.05s47.23,0,47.23,0v-19.33h-47.23s0-9.05,0-9.05l21.06-21.06-13.67-13.67-19.73,19.73c-4.48,4.48-6.99,10.55-6.99,16.89v33.67c0,6.33,2.52,12.41,6.99,16.89l19.73,19.73Z"/>
            <path class="cls-1" d="M1234.41,235.3v19.33h47.23s0,9.05,0,9.05l-21.06,21.06,13.67,13.67,19.73-19.73c4.48-4.48,6.99-10.55,6.99-16.89v-33.67c0-6.33-2.52-12.41-6.99-16.89l-19.73-19.73-13.67,13.67,21.06,21.06v9.05s-47.23,0-47.23,0Z"/>
          </g>
        </g>
        <g>
          <g>
            <path class="cls-1" d="M1750.58,202.66l13.67-13.67-21.06-21.06v-9.05s47.23,0,47.23,0v-19.33h-47.23s0-9.05,0-9.05l21.06-21.06-13.67-13.67-19.73,19.73c-4.48,4.48-6.99,10.55-6.99,16.89v33.67c0,6.33,2.52,12.41,6.99,16.89l19.73,19.73Z"/>
            <path class="cls-1" d="M1644.85,139.54v19.33h47.23s0,9.05,0,9.05l-21.06,21.06,13.67,13.67,19.73-19.73c4.48-4.48,6.99-10.55,6.99-16.89v-33.67c0-6.33-2.52-12.41-6.99-16.89l-19.73-19.73-13.67,13.67,21.06,21.06v9.05s-47.23,0-47.23,0Z"/>
          </g>
          <path class="cls-1" d="M1726.94,43.78v19.33h47.23s0,9.05,0,9.05l-21.06,21.06,13.67,13.67,19.73-19.73c4.48-4.48,6.99-10.55,6.99-16.89v-33.67c0-6.33-2.52-12.41-6.99-16.89L1766.77,0l-13.67,13.67,21.06,21.06v9.05s-47.23,0-47.23,0Z"/>
          <path class="cls-1" d="M1544.15,43.78v19.33h-47.23s0,9.05,0,9.05l21.06,21.06-13.67,13.67-19.73-19.73c-4.48-4.48-6.99-10.55-6.99-16.89v-33.67c0-6.33,2.52-12.41,6.99-16.89L1504.31,0l13.67,13.67-21.06,21.06v9.05s47.23,0,47.23,0Z"/>
          <path class="cls-1" d="M1726.94,235.3v19.33h47.23s0,9.05,0,9.05l-21.06,21.06,13.67,13.67,19.73-19.73c4.48-4.48,6.99-10.55,6.99-16.89v-33.67c0-6.33-2.52-12.41-6.99-16.89l-19.73-19.73-13.67,13.67,21.06,21.06v9.05s-47.23,0-47.23,0Z"/>
          <path class="cls-1" d="M1544.15,235.3v19.33h-47.23s0,9.05,0,9.05l21.06,21.06-13.67,13.67-19.73-19.73c-4.48-4.48-6.99-10.55-6.99-16.89v-33.67c0-6.33,2.52-12.41,6.99-16.89l19.73-19.73,13.67,13.67-21.06,21.06v9.05s47.23,0,47.23,0Z"/>
          <g>
            <path class="cls-1" d="M1586.4,202.66l13.67-13.67-21.06-21.06v-9.05s47.23,0,47.23,0v-19.33h-47.23s0-9.05,0-9.05l21.06-21.06-13.67-13.67-19.73,19.73c-4.48,4.48-6.99,10.55-6.99,16.89v33.67c0,6.33,2.52,12.41,6.99,16.89l19.73,19.73Z"/>
            <path class="cls-1" d="M1480.67,139.54v19.33h47.23s0,9.05,0,9.05l-21.06,21.06,13.67,13.67,19.73-19.73c4.48-4.48,6.99-10.55,6.99-16.89v-33.67c0-6.33-2.52-12.41-6.99-16.89l-19.73-19.73-13.67,13.67,21.06,21.06v9.05s-47.23,0-47.23,0Z"/>
          </g>
          <g>
            <path class="cls-1" d="M1668.49,106.9l13.67-13.67-21.06-21.06v-9.05s47.23,0,47.23,0v-19.33h-47.23s0-9.05,0-9.05l21.06-21.06-13.67-13.67-19.73,19.73c-4.48,4.48-6.99,10.55-6.99,16.89v33.67c0,6.33,2.52,12.41,6.99,16.89l19.73,19.73Z"/>
            <path class="cls-1" d="M1562.76,43.78v19.33h47.23s0,9.05,0,9.05l-21.06,21.06,13.67,13.67,19.73-19.73c4.48-4.48,6.99-10.55,6.99-16.89v-33.67c0-6.33-2.52-12.41-6.99-16.89L1602.6,0l-13.67,13.67,21.06,21.06v9.05s-47.23,0-47.23,0Z"/>
          </g>
          <g>
            <path class="cls-1" d="M1668.49,298.42l13.67-13.67-21.06-21.06v-9.05s47.23,0,47.23,0v-19.33h-47.23s0-9.05,0-9.05l21.06-21.06-13.67-13.67-19.73,19.73c-4.48,4.48-6.99,10.55-6.99,16.89v33.67c0,6.33,2.52,12.41,6.99,16.89l19.73,19.73Z"/>
            <path class="cls-1" d="M1562.76,235.3v19.33h47.23s0,9.05,0,9.05l-21.06,21.06,13.67,13.67,19.73-19.73c4.48-4.48,6.99-10.55,6.99-16.89v-33.67c0-6.33-2.52-12.41-6.99-16.89l-19.73-19.73-13.67,13.67,21.06,21.06v9.05s-47.23,0-47.23,0Z"/>
          </g>
        </g>
        <g>
          <path class="cls-1" d="M1872.5,43.78v19.33h-47.23s0,9.05,0,9.05l21.06,21.06-13.67,13.67-19.73-19.73c-4.48-4.48-6.99-10.55-6.99-16.89v-33.67c0-6.33,2.52-12.41,6.99-16.89L1832.66,0l13.67,13.67-21.06,21.06v9.05s47.23,0,47.23,0Z"/>
          <path class="cls-1" d="M1872.5,235.3v19.33h-47.23s0,9.05,0,9.05l21.06,21.06-13.67,13.67-19.73-19.73c-4.48-4.48-6.99-10.55-6.99-16.89v-33.67c0-6.33,2.52-12.41,6.99-16.89l19.73-19.73,13.67,13.67-21.06,21.06v9.05s47.23,0,47.23,0Z"/>
          <g>
            <path class="cls-1" d="M1914.75,202.66l13.67-13.67-21.06-21.06v-9.05s47.23,0,47.23,0v-19.33h-47.23s0-9.05,0-9.05l21.06-21.06-13.67-13.67-19.73,19.73c-4.48,4.48-6.99,10.55-6.99,16.89v33.67c0,6.33,2.52,12.41,6.99,16.89l19.73,19.73Z"/>
            <path class="cls-1" d="M1809.02,139.54v19.33h47.23s0,9.05,0,9.05l-21.06,21.06,13.67,13.67,19.73-19.73c4.48-4.48,6.99-10.55,6.99-16.89v-33.67c0-6.33-2.52-12.41-6.99-16.89l-19.73-19.73-13.67,13.67,21.06,21.06v9.05s-47.23,0-47.23,0Z"/>
          </g>
          <path class="cls-1" d="M1891.11,43.78v19.33h47.23s0,9.05,0,9.05l-21.06,21.06,13.67,13.67,19.73-19.73c4.48-4.48,6.99-10.55,6.99-16.89v-33.67c0-6.33-2.52-12.41-6.99-16.89L1930.95,0l-13.67,13.67,21.06,21.06v9.05s-47.23,0-47.23,0Z"/>
          <path class="cls-1" d="M1891.11,235.3v19.33h47.23s0,9.05,0,9.05l-21.06,21.06,13.67,13.67,19.73-19.73c4.48-4.48,6.99-10.55,6.99-16.89v-33.67c0-6.33-2.52-12.41-6.99-16.89l-19.73-19.73-13.67,13.67,21.06,21.06v9.05s-47.23,0-47.23,0Z"/>
        </g>
        <g>
          <g>
            <path class="cls-1" d="M1093.87,394.18l13.67-13.67-21.06-21.06v-9.05s47.23,0,47.23,0v-19.33h-47.23s0-9.05,0-9.05l21.06-21.06-13.67-13.67-19.73,19.73c-4.48,4.48-6.99,10.55-6.99,16.89v33.67c0,6.33,2.52,12.41,6.99,16.89l19.73,19.73Z"/>
            <path class="cls-1" d="M988.14,331.06v19.33h47.23s0,9.05,0,9.05l-21.06,21.06,13.67,13.67,19.73-19.73c4.48-4.48,6.99-10.55,6.99-16.89v-33.67c0-6.33-2.52-12.41-6.99-16.89l-19.73-19.73-13.67,13.67,21.06,21.06v9.05s-47.23,0-47.23,0Z"/>
          </g>
          <path class="cls-1" d="M1070.23,426.82v19.33h47.23s0,9.05,0,9.05l-21.06,21.06,13.67,13.67,19.73-19.73c4.48-4.48,6.99-10.55,6.99-16.89v-33.67c0-6.33-2.52-12.41-6.99-16.89l-19.73-19.73-13.67,13.67,21.06,21.06v9.05s-47.23,0-47.23,0Z"/>
          <path class="cls-1" d="M887.44,426.82v19.33h-47.23s0,9.05,0,9.05l21.06,21.06-13.67,13.67-19.73-19.73c-4.48-4.48-6.99-10.55-6.99-16.89v-33.67c0-6.33,2.52-12.41,6.99-16.89l19.73-19.73,13.67,13.67-21.06,21.06v9.05s47.23,0,47.23,0Z"/>
          <g>
            <path class="cls-1" d="M929.69,394.18l13.67-13.67-21.06-21.06v-9.05s47.23,0,47.23,0v-19.33h-47.23s0-9.05,0-9.05l21.06-21.06-13.67-13.67-19.73,19.73c-4.48,4.48-6.99,10.55-6.99,16.89v33.67c0,6.33,2.52,12.41,6.99,16.89l19.73,19.73Z"/>
            <path class="cls-1" d="M823.97,331.06v19.33h47.23s0,9.05,0,9.05l-21.06,21.06,13.67,13.67,19.73-19.73c4.48-4.48,6.99-10.55,6.99-16.89v-33.67c0-6.33-2.52-12.41-6.99-16.89l-19.73-19.73-13.67,13.67,21.06,21.06v9.05s-47.23,0-47.23,0Z"/>
          </g>
          <g>
            <path class="cls-1" d="M1011.78,489.94l13.67-13.67-21.06-21.06v-9.05s47.23,0,47.23,0v-19.33h-47.23s0-9.05,0-9.05l21.06-21.06-13.67-13.67-19.73,19.73c-4.48,4.48-6.99,10.55-6.99,16.89v33.67c0,6.33,2.52,12.41,6.99,16.89l19.73,19.73Z"/>
            <path class="cls-1" d="M906.05,426.82v19.33h47.23s0,9.05,0,9.05l-21.06,21.06,13.67,13.67,19.73-19.73c4.48-4.48,6.99-10.55,6.99-16.89v-33.67c0-6.33-2.52-12.41-6.99-16.89l-19.73-19.73-13.67,13.67,21.06,21.06v9.05s-47.23,0-47.23,0Z"/>
          </g>
        </g>
        <g>
          <g>
            <path class="cls-1" d="M1422.22,394.18l13.67-13.67-21.06-21.06v-9.05s47.23,0,47.23,0v-19.33h-47.23s0-9.05,0-9.05l21.06-21.06-13.67-13.67-19.73,19.73c-4.48,4.48-6.99,10.55-6.99,16.89v33.67c0,6.33,2.52,12.41,6.99,16.89l19.73,19.73Z"/>
            <path class="cls-1" d="M1316.5,331.06v19.33h47.23s0,9.05,0,9.05l-21.06,21.06,13.67,13.67,19.73-19.73c4.48-4.48,6.99-10.55,6.99-16.89v-33.67c0-6.33-2.52-12.41-6.99-16.89l-19.73-19.73-13.67,13.67,21.06,21.06v9.05s-47.23,0-47.23,0Z"/>
          </g>
          <path class="cls-1" d="M1398.58,426.82v19.33h47.23s0,9.05,0,9.05l-21.06,21.06,13.67,13.67,19.73-19.73c4.48-4.48,6.99-10.55,6.99-16.89v-33.67c0-6.33-2.52-12.41-6.99-16.89l-19.73-19.73-13.67,13.67,21.06,21.06v9.05s-47.23,0-47.23,0Z"/>
          <path class="cls-1" d="M1215.8,426.82v19.33h-47.23s0,9.05,0,9.05l21.06,21.06-13.67,13.67-19.73-19.73c-4.48-4.48-6.99-10.55-6.99-16.89v-33.67c0-6.33,2.52-12.41,6.99-16.89l19.73-19.73,13.67,13.67-21.06,21.06v9.05s47.23,0,47.23,0Z"/>
          <g>
            <path class="cls-1" d="M1258.05,394.18l13.67-13.67-21.06-21.06v-9.05s47.23,0,47.23,0v-19.33h-47.23s0-9.05,0-9.05l21.06-21.06-13.67-13.67-19.73,19.73c-4.48,4.48-6.99,10.55-6.99,16.89v33.67c0,6.33,2.52,12.41,6.99,16.89l19.73,19.73Z"/>
            <path class="cls-1" d="M1152.32,331.06v19.33h47.23s0,9.05,0,9.05l-21.06,21.06,13.67,13.67,19.73-19.73c4.48-4.48,6.99-10.55,6.99-16.89v-33.67c0-6.33-2.52-12.41-6.99-16.89l-19.73-19.73-13.67,13.67,21.06,21.06v9.05s-47.23,0-47.23,0Z"/>
          </g>
          <g>
            <path class="cls-1" d="M1340.13,489.94l13.67-13.67-21.06-21.06v-9.05s47.23,0,47.23,0v-19.33h-47.23s0-9.05,0-9.05l21.06-21.06-13.67-13.67-19.73,19.73c-4.48,4.48-6.99,10.55-6.99,16.89v33.67c0,6.33,2.52,12.41,6.99,16.89l19.73,19.73Z"/>
            <path class="cls-1" d="M1234.41,426.82v19.33h47.23s0,9.05,0,9.05l-21.06,21.06,13.67,13.67,19.73-19.73c4.48-4.48,6.99-10.55,6.99-16.89v-33.67c0-6.33-2.52-12.41-6.99-16.89l-19.73-19.73-13.67,13.67,21.06,21.06v9.05s-47.23,0-47.23,0Z"/>
          </g>
        </g>
        <g>
          <g>
            <path class="cls-1" d="M1750.58,394.18l13.67-13.67-21.06-21.06v-9.05s47.23,0,47.23,0v-19.33h-47.23s0-9.05,0-9.05l21.06-21.06-13.67-13.67-19.73,19.73c-4.48,4.48-6.99,10.55-6.99,16.89v33.67c0,6.33,2.52,12.41,6.99,16.89l19.73,19.73Z"/>
            <path class="cls-1" d="M1644.85,331.06v19.33h47.23s0,9.05,0,9.05l-21.06,21.06,13.67,13.67,19.73-19.73c4.48-4.48,6.99-10.55,6.99-16.89v-33.67c0-6.33-2.52-12.41-6.99-16.89l-19.73-19.73-13.67,13.67,21.06,21.06v9.05s-47.23,0-47.23,0Z"/>
          </g>
          <path class="cls-1" d="M1726.94,426.82v19.33h47.23s0,9.05,0,9.05l-21.06,21.06,13.67,13.67,19.73-19.73c4.48-4.48,6.99-10.55,6.99-16.89v-33.67c0-6.33-2.52-12.41-6.99-16.89l-19.73-19.73-13.67,13.67,21.06,21.06v9.05s-47.23,0-47.23,0Z"/>
          <path class="cls-1" d="M1544.15,426.82v19.33h-47.23s0,9.05,0,9.05l21.06,21.06-13.67,13.67-19.73-19.73c-4.48-4.48-6.99-10.55-6.99-16.89v-33.67c0-6.33,2.52-12.41,6.99-16.89l19.73-19.73,13.67,13.67-21.06,21.06v9.05s47.23,0,47.23,0Z"/>
          <g>
            <path class="cls-1" d="M1586.4,394.18l13.67-13.67-21.06-21.06v-9.05s47.23,0,47.23,0v-19.33h-47.23s0-9.05,0-9.05l21.06-21.06-13.67-13.67-19.73,19.73c-4.48,4.48-6.99,10.55-6.99,16.89v33.67c0,6.33,2.52,12.41,6.99,16.89l19.73,19.73Z"/>
            <path class="cls-1" d="M1480.67,331.06v19.33h47.23s0,9.05,0,9.05l-21.06,21.06,13.67,13.67,19.73-19.73c4.48-4.48,6.99-10.55,6.99-16.89v-33.67c0-6.33-2.52-12.41-6.99-16.89l-19.73-19.73-13.67,13.67,21.06,21.06v9.05s-47.23,0-47.23,0Z"/>
          </g>
          <g>
            <path class="cls-1" d="M1668.49,489.94l13.67-13.67-21.06-21.06v-9.05s47.23,0,47.23,0v-19.33h-47.23s0-9.05,0-9.05l21.06-21.06-13.67-13.67-19.73,19.73c-4.48,4.48-6.99,10.55-6.99,16.89v33.67c0,6.33,2.52,12.41,6.99,16.89l19.73,19.73Z"/>
            <path class="cls-1" d="M1562.76,426.82v19.33h47.23s0,9.05,0,9.05l-21.06,21.06,13.67,13.67,19.73-19.73c4.48-4.48,6.99-10.55,6.99-16.89v-33.67c0-6.33-2.52-12.41-6.99-16.89l-19.73-19.73-13.67,13.67,21.06,21.06v9.05s-47.23,0-47.23,0Z"/>
          </g>
        </g>
        <g>
          <path class="cls-1" d="M1872.5,426.82v19.33h-47.23s0,9.05,0,9.05l21.06,21.06-13.67,13.67-19.73-19.73c-4.48-4.48-6.99-10.55-6.99-16.89v-33.67c0-6.33,2.52-12.41,6.99-16.89l19.73-19.73,13.67,13.67-21.06,21.06v9.05s47.23,0,47.23,0Z"/>
          <g>
            <path class="cls-1" d="M1914.75,394.18l13.67-13.67-21.06-21.06v-9.05s47.23,0,47.23,0v-19.33h-47.23s0-9.05,0-9.05l21.06-21.06-13.67-13.67-19.73,19.73c-4.48,4.48-6.99,10.55-6.99,16.89v33.67c0,6.33,2.52,12.41,6.99,16.89l19.73,19.73Z"/>
            <path class="cls-1" d="M1809.02,331.06v19.33h47.23s0,9.05,0,9.05l-21.06,21.06,13.67,13.67,19.73-19.73c4.48-4.48,6.99-10.55,6.99-16.89v-33.67c0-6.33-2.52-12.41-6.99-16.89l-19.73-19.73-13.67,13.67,21.06,21.06v9.05s-47.23,0-47.23,0Z"/>
          </g>
          <path class="cls-1" d="M1891.11,426.82v19.33h47.23s0,9.05,0,9.05l-21.06,21.06,13.67,13.67,19.73-19.73c4.48-4.48,6.99-10.55,6.99-16.89v-33.67c0-6.33-2.52-12.41-6.99-16.89l-19.73-19.73-13.67,13.67,21.06,21.06v9.05s-47.23,0-47.23,0Z"/>
        </g>
      </g>
    </g>
  </g>
</svg>