<?xml version="1.0" encoding="UTF-8"?>
<svg id="Camada_2" data-name="Camada 2" xmlns="http://www.w3.org/2000/svg" viewBox="0 0 1920 803.96">
  <defs>
    <style>
      .cls-1 {
        fill: #121c2d;
      }
    </style>
  </defs>
  <g id="Camada_4" data-name="Camada 4">
    <g>
      <g>
        <g>
          <g>
            <path class="cls-1" d="M152.25,0l-16.5,16.5,25.41,25.41v10.92h-65.17v23.33h65.17v10.92l-25.41,25.41,16.5,16.5,23.81-23.81c5.4-5.4,8.44-12.73,8.44-20.38v-40.62c0-7.64-3.04-14.97-8.44-20.38L152.25,0Z"/>
            <path class="cls-1" d="M39.75,0l16.5,16.5-25.41,25.41v10.92h65.17s0,23.33,0,23.33H30.83v10.92s25.41,25.41,25.41,25.41l-16.5,16.5-23.81-23.81c-5.4-5.4-8.44-12.73-8.44-20.38v-40.62c0-7.64,3.04-14.97,8.44-20.38L39.75,0Z"/>
            <path class="cls-1" d="M288,76.16v-23.33h-65.17v-10.92l25.41-25.41L231.75,0l-23.81,23.81c-5.4,5.4-8.44,12.73-8.44,20.38v40.62c0,7.64,3.04,14.97,8.44,20.38l23.81,23.81,16.5-16.5-25.41-25.41v-10.92h65.17Z"/>
            <path class="cls-1" d="M288,76.16v-23.33s65.17,0,65.17,0v-10.92s-25.41-25.41-25.41-25.41L344.25,0l23.81,23.81c5.4,5.4,8.44,12.73,8.44,20.38v40.62c0,7.64-3.04,14.97-8.44,20.38l-23.81,23.81-16.5-16.5,25.41-25.41v-10.92h-65.17Z"/>
          </g>
          <g>
            <path class="cls-1" d="M248.25,112.5l-16.5,16.5,25.41,25.41v10.92h-65.17v23.33h65.17v10.92l-25.41,25.41,16.5,16.5,23.81-23.81c5.4-5.4,8.44-12.73,8.44-20.38v-40.62c0-7.64-3.04-14.97-8.44-20.38l-23.81-23.81Z"/>
            <path class="cls-1" d="M384,188.66v-23.33h-65.17v-10.92l25.41-25.41-16.5-16.5-23.81,23.81c-5.4,5.4-8.44,12.73-8.44,20.38v40.62c0,7.64,3.04,14.97,8.44,20.38l23.81,23.81,16.5-16.5-25.41-25.41v-10.92h65.17Z"/>
          </g>
          <g>
            <path class="cls-1" d="M56.25,112.5l-16.5,16.5,25.41,25.41v10.92H0v23.33h65.17v10.92l-25.41,25.41,16.5,16.5,23.81-23.81c5.4-5.4,8.44-12.73,8.44-20.38v-40.62c0-7.64-3.04-14.97-8.44-20.38l-23.81-23.81Z"/>
            <path class="cls-1" d="M192,188.66v-23.33h-65.17v-10.92l25.41-25.41-16.5-16.5-23.81,23.81c-5.4,5.4-8.44,12.73-8.44,20.38v40.62c0,7.64,3.04,14.97,8.44,20.38l23.81,23.81,16.5-16.5-25.41-25.41v-10.92h65.17Z"/>
          </g>
          <g>
            <path class="cls-1" d="M152.25,224.99l-16.5,16.5,25.41,25.41v10.92h-65.17v23.33h65.17v10.92l-25.41,25.41,16.5,16.5,23.81-23.81c5.4-5.4,8.44-12.73,8.44-20.38v-40.62c0-7.64-3.04-14.97-8.44-20.38l-23.81-23.81Z"/>
            <path class="cls-1" d="M39.75,224.99l16.5,16.5-25.41,25.41v10.92h65.17s0,23.33,0,23.33H30.83v10.92s25.41,25.41,25.41,25.41l-16.5,16.5-23.81-23.81c-5.4-5.4-8.44-12.73-8.44-20.38v-40.62c0-7.64,3.04-14.97,8.44-20.38l23.81-23.81Z"/>
            <path class="cls-1" d="M288,301.15v-23.33h-65.17v-10.92l25.41-25.41-16.5-16.5-23.81,23.81c-5.4,5.4-8.44,12.73-8.44,20.38v40.62c0,7.64,3.04,14.97,8.44,20.38l23.81,23.81,16.5-16.5-25.41-25.41v-10.92h65.17Z"/>
            <path class="cls-1" d="M288,301.15v-23.33s65.17,0,65.17,0v-10.92s-25.41-25.41-25.41-25.41l16.5-16.5,23.81,23.81c5.4,5.4,8.44,12.73,8.44,20.38v40.62c0,7.64-3.04,14.97-8.44,20.38l-23.81,23.81-16.5-16.5,25.41-25.41v-10.92h-65.17Z"/>
          </g>
          <g>
            <path class="cls-1" d="M248.25,337.49l-16.5,16.5,25.41,25.41v10.92h-65.17v23.33h65.17v10.92l-25.41,25.41,16.5,16.5,23.81-23.81c5.4-5.4,8.44-12.73,8.44-20.38v-40.62c0-7.64-3.04-14.97-8.44-20.38l-23.81-23.81Z"/>
            <path class="cls-1" d="M384,413.65v-23.33h-65.17v-10.92l25.41-25.41-16.5-16.5-23.81,23.81c-5.4,5.4-8.44,12.73-8.44,20.38v40.62c0,7.64,3.04,14.97,8.44,20.38l23.81,23.81,16.5-16.5-25.41-25.41v-10.92h65.17Z"/>
          </g>
          <g>
            <path class="cls-1" d="M56.25,337.49l-16.5,16.5,25.41,25.41v10.92H0v23.33h65.17v10.92l-25.41,25.41,16.5,16.5,23.81-23.81c5.4-5.4,8.44-12.73,8.44-20.38v-40.62c0-7.64-3.04-14.97-8.44-20.38l-23.81-23.81Z"/>
            <path class="cls-1" d="M192,413.65v-23.33h-65.17v-10.92l25.41-25.41-16.5-16.5-23.81,23.81c-5.4,5.4-8.44,12.73-8.44,20.38v40.62c0,7.64,3.04,14.97,8.44,20.38l23.81,23.81,16.5-16.5-25.41-25.41v-10.92h65.17Z"/>
          </g>
        </g>
        <g>
          <g>
            <path class="cls-1" d="M152.25,449.98l-16.5,16.5,25.41,25.41v10.92h-65.17v23.33h65.17v10.92l-25.41,25.41,16.5,16.5,23.81-23.81c5.4-5.4,8.44-12.73,8.44-20.38v-40.62c0-7.64-3.04-14.97-8.44-20.38l-23.81-23.81Z"/>
            <path class="cls-1" d="M39.75,449.98l16.5,16.5-25.41,25.41v10.92h65.17s0,23.33,0,23.33H30.83v10.92s25.41,25.41,25.41,25.41l-16.5,16.5-23.81-23.81c-5.4-5.4-8.44-12.73-8.44-20.38v-40.62c0-7.64,3.04-14.97,8.44-20.38l23.81-23.81Z"/>
            <path class="cls-1" d="M288,526.14v-23.33h-65.17v-10.92l25.41-25.41-16.5-16.5-23.81,23.81c-5.4,5.4-8.44,12.73-8.44,20.38v40.62c0,7.64,3.04,14.97,8.44,20.38l23.81,23.81,16.5-16.5-25.41-25.41v-10.92h65.17Z"/>
            <path class="cls-1" d="M288,526.14v-23.33s65.17,0,65.17,0v-10.92s-25.41-25.41-25.41-25.41l16.5-16.5,23.81,23.81c5.4,5.4,8.44,12.73,8.44,20.38v40.62c0,7.64-3.04,14.97-8.44,20.38l-23.81,23.81-16.5-16.5,25.41-25.41v-10.92h-65.17Z"/>
          </g>
          <g>
            <path class="cls-1" d="M248.25,562.48l-16.5,16.5,25.41,25.41v10.92h-65.17v23.33h65.17v10.92l-25.41,25.41,16.5,16.5,23.81-23.81c5.4-5.4,8.44-12.73,8.44-20.38v-40.62c0-7.64-3.04-14.97-8.44-20.38l-23.81-23.81Z"/>
            <path class="cls-1" d="M384,638.64v-23.33h-65.17v-10.92l25.41-25.41-16.5-16.5-23.81,23.81c-5.4,5.4-8.44,12.73-8.44,20.38v40.62c0,7.64,3.04,14.97,8.44,20.38l23.81,23.81,16.5-16.5-25.41-25.41v-10.92h65.17Z"/>
          </g>
          <g>
            <path class="cls-1" d="M56.25,562.48l-16.5,16.5,25.41,25.41v10.92H0v23.33h65.17v10.92l-25.41,25.41,16.5,16.5,23.81-23.81c5.4-5.4,8.44-12.73,8.44-20.38v-40.62c0-7.64-3.04-14.97-8.44-20.38l-23.81-23.81Z"/>
            <path class="cls-1" d="M192,638.64v-23.33h-65.17v-10.92l25.41-25.41-16.5-16.5-23.81,23.81c-5.4,5.4-8.44,12.73-8.44,20.38v40.62c0,7.64,3.04,14.97,8.44,20.38l23.81,23.81,16.5-16.5-25.41-25.41v-10.92h65.17Z"/>
          </g>
          <g>
            <path class="cls-1" d="M152.25,674.97l-16.5,16.5,25.41,25.41v10.92h-65.17v23.33h65.17v10.92l-25.41,25.41,16.5,16.5,23.81-23.81c5.4-5.4,8.44-12.73,8.44-20.38v-40.62c0-7.64-3.04-14.97-8.44-20.38l-23.81-23.81Z"/>
            <path class="cls-1" d="M39.75,674.97l16.5,16.5-25.41,25.41v10.92h65.17s0,23.33,0,23.33H30.83v10.92s25.41,25.41,25.41,25.41l-16.5,16.5-23.81-23.81c-5.4-5.4-8.44-12.73-8.44-20.38v-40.62c0-7.64,3.04-14.97,8.44-20.38l23.81-23.81Z"/>
            <path class="cls-1" d="M288,751.13v-23.33h-65.17v-10.92l25.41-25.41-16.5-16.5-23.81,23.81c-5.4,5.4-8.44,12.73-8.44,20.38v40.62c0,7.64,3.04,14.97,8.44,20.38l23.81,23.81,16.5-16.5-25.41-25.41v-10.92h65.17Z"/>
            <path class="cls-1" d="M288,751.13v-23.33s65.17,0,65.17,0v-10.92s-25.41-25.41-25.41-25.41l16.5-16.5,23.81,23.81c5.4,5.4,8.44,12.73,8.44,20.38v40.62c0,7.64-3.04,14.97-8.44,20.38l-23.81,23.81-16.5-16.5,25.41-25.41v-10.92h-65.17Z"/>
          </g>
        </g>
      </g>
      <g>
        <g>
          <g>
            <path class="cls-1" d="M536.25,0l-16.5,16.5,25.41,25.41v10.92h-65.17v23.33h65.17v10.92l-25.41,25.41,16.5,16.5,23.81-23.81c5.4-5.4,8.44-12.73,8.44-20.38v-40.62c0-7.64-3.04-14.97-8.44-20.38L536.25,0Z"/>
            <path class="cls-1" d="M423.75,0l16.5,16.5-25.41,25.41v10.92h65.17s0,23.33,0,23.33h-65.17v10.92s25.41,25.41,25.41,25.41l-16.5,16.5-23.81-23.81c-5.4-5.4-8.44-12.73-8.44-20.38v-40.62c0-7.64,3.04-14.97,8.44-20.38L423.75,0Z"/>
            <path class="cls-1" d="M672,76.16v-23.33h-65.17v-10.92l25.41-25.41L615.75,0l-23.81,23.81c-5.4,5.4-8.44,12.73-8.44,20.38v40.62c0,7.64,3.04,14.97,8.44,20.38l23.81,23.81,16.5-16.5-25.41-25.41v-10.92h65.17Z"/>
            <path class="cls-1" d="M672,76.16v-23.33s65.17,0,65.17,0v-10.92s-25.41-25.41-25.41-25.41l16.5-16.5,23.81,23.81c5.4,5.4,8.44,12.73,8.44,20.38v40.62c0,7.64-3.04,14.97-8.44,20.38l-23.81,23.81-16.5-16.5,25.41-25.41v-10.92h-65.17Z"/>
          </g>
          <g>
            <path class="cls-1" d="M632.25,112.5l-16.5,16.5,25.41,25.41v10.92h-65.17v23.33h65.17v10.92l-25.41,25.41,16.5,16.5,23.81-23.81c5.4-5.4,8.44-12.73,8.44-20.38v-40.62c0-7.64-3.04-14.97-8.44-20.38l-23.81-23.81Z"/>
            <path class="cls-1" d="M768,188.66v-23.33h-65.17v-10.92l25.41-25.41-16.5-16.5-23.81,23.81c-5.4,5.4-8.44,12.73-8.44,20.38v40.62c0,7.64,3.04,14.97,8.44,20.38l23.81,23.81,16.5-16.5-25.41-25.41v-10.92h65.17Z"/>
          </g>
          <g>
            <path class="cls-1" d="M440.25,112.5l-16.5,16.5,25.41,25.41v10.92h-65.17v23.33h65.17v10.92l-25.41,25.41,16.5,16.5,23.81-23.81c5.4-5.4,8.44-12.73,8.44-20.38v-40.62c0-7.64-3.04-14.97-8.44-20.38l-23.81-23.81Z"/>
            <path class="cls-1" d="M576,188.66v-23.33h-65.17v-10.92l25.41-25.41-16.5-16.5-23.81,23.81c-5.4,5.4-8.44,12.73-8.44,20.38v40.62c0,7.64,3.04,14.97,8.44,20.38l23.81,23.81,16.5-16.5-25.41-25.41v-10.92h65.17Z"/>
          </g>
          <g>
            <path class="cls-1" d="M536.25,224.99l-16.5,16.5,25.41,25.41v10.92h-65.17v23.33h65.17v10.92l-25.41,25.41,16.5,16.5,23.81-23.81c5.4-5.4,8.44-12.73,8.44-20.38v-40.62c0-7.64-3.04-14.97-8.44-20.38l-23.81-23.81Z"/>
            <path class="cls-1" d="M423.75,224.99l16.5,16.5-25.41,25.41v10.92h65.17s0,23.33,0,23.33h-65.17v10.92s25.41,25.41,25.41,25.41l-16.5,16.5-23.81-23.81c-5.4-5.4-8.44-12.73-8.44-20.38v-40.62c0-7.64,3.04-14.97,8.44-20.38l23.81-23.81Z"/>
            <path class="cls-1" d="M672,301.15v-23.33h-65.17v-10.92l25.41-25.41-16.5-16.5-23.81,23.81c-5.4,5.4-8.44,12.73-8.44,20.38v40.62c0,7.64,3.04,14.97,8.44,20.38l23.81,23.81,16.5-16.5-25.41-25.41v-10.92h65.17Z"/>
            <path class="cls-1" d="M672,301.15v-23.33s65.17,0,65.17,0v-10.92s-25.41-25.41-25.41-25.41l16.5-16.5,23.81,23.81c5.4,5.4,8.44,12.73,8.44,20.38v40.62c0,7.64-3.04,14.97-8.44,20.38l-23.81,23.81-16.5-16.5,25.41-25.41v-10.92h-65.17Z"/>
          </g>
          <g>
            <path class="cls-1" d="M632.25,337.49l-16.5,16.5,25.41,25.41v10.92h-65.17v23.33h65.17v10.92l-25.41,25.41,16.5,16.5,23.81-23.81c5.4-5.4,8.44-12.73,8.44-20.38v-40.62c0-7.64-3.04-14.97-8.44-20.38l-23.81-23.81Z"/>
            <path class="cls-1" d="M768,413.65v-23.33h-65.17v-10.92l25.41-25.41-16.5-16.5-23.81,23.81c-5.4,5.4-8.44,12.73-8.44,20.38v40.62c0,7.64,3.04,14.97,8.44,20.38l23.81,23.81,16.5-16.5-25.41-25.41v-10.92h65.17Z"/>
          </g>
          <g>
            <path class="cls-1" d="M440.25,337.49l-16.5,16.5,25.41,25.41v10.92h-65.17v23.33h65.17v10.92l-25.41,25.41,16.5,16.5,23.81-23.81c5.4-5.4,8.44-12.73,8.44-20.38v-40.62c0-7.64-3.04-14.97-8.44-20.38l-23.81-23.81Z"/>
            <path class="cls-1" d="M576,413.65v-23.33h-65.17v-10.92l25.41-25.41-16.5-16.5-23.81,23.81c-5.4,5.4-8.44,12.73-8.44,20.38v40.62c0,7.64,3.04,14.97,8.44,20.38l23.81,23.81,16.5-16.5-25.41-25.41v-10.92h65.17Z"/>
          </g>
        </g>
        <g>
          <g>
            <path class="cls-1" d="M536.25,449.98l-16.5,16.5,25.41,25.41v10.92h-65.17v23.33h65.17v10.92l-25.41,25.41,16.5,16.5,23.81-23.81c5.4-5.4,8.44-12.73,8.44-20.38v-40.62c0-7.64-3.04-14.97-8.44-20.38l-23.81-23.81Z"/>
            <path class="cls-1" d="M423.75,449.98l16.5,16.5-25.41,25.41v10.92h65.17s0,23.33,0,23.33h-65.17v10.92s25.41,25.41,25.41,25.41l-16.5,16.5-23.81-23.81c-5.4-5.4-8.44-12.73-8.44-20.38v-40.62c0-7.64,3.04-14.97,8.44-20.38l23.81-23.81Z"/>
            <path class="cls-1" d="M672,526.14v-23.33h-65.17v-10.92l25.41-25.41-16.5-16.5-23.81,23.81c-5.4,5.4-8.44,12.73-8.44,20.38v40.62c0,7.64,3.04,14.97,8.44,20.38l23.81,23.81,16.5-16.5-25.41-25.41v-10.92h65.17Z"/>
            <path class="cls-1" d="M672,526.14v-23.33s65.17,0,65.17,0v-10.92s-25.41-25.41-25.41-25.41l16.5-16.5,23.81,23.81c5.4,5.4,8.44,12.73,8.44,20.38v40.62c0,7.64-3.04,14.97-8.44,20.38l-23.81,23.81-16.5-16.5,25.41-25.41v-10.92h-65.17Z"/>
          </g>
          <g>
            <path class="cls-1" d="M632.25,562.48l-16.5,16.5,25.41,25.41v10.92h-65.17v23.33h65.17v10.92l-25.41,25.41,16.5,16.5,23.81-23.81c5.4-5.4,8.44-12.73,8.44-20.38v-40.62c0-7.64-3.04-14.97-8.44-20.38l-23.81-23.81Z"/>
            <path class="cls-1" d="M768,638.64v-23.33h-65.17v-10.92l25.41-25.41-16.5-16.5-23.81,23.81c-5.4,5.4-8.44,12.73-8.44,20.38v40.62c0,7.64,3.04,14.97,8.44,20.38l23.81,23.81,16.5-16.5-25.41-25.41v-10.92h65.17Z"/>
          </g>
          <g>
            <path class="cls-1" d="M440.25,562.48l-16.5,16.5,25.41,25.41v10.92h-65.17v23.33h65.17v10.92l-25.41,25.41,16.5,16.5,23.81-23.81c5.4-5.4,8.44-12.73,8.44-20.38v-40.62c0-7.64-3.04-14.97-8.44-20.38l-23.81-23.81Z"/>
            <path class="cls-1" d="M576,638.64v-23.33h-65.17v-10.92l25.41-25.41-16.5-16.5-23.81,23.81c-5.4,5.4-8.44,12.73-8.44,20.38v40.62c0,7.64,3.04,14.97,8.44,20.38l23.81,23.81,16.5-16.5-25.41-25.41v-10.92h65.17Z"/>
          </g>
          <g>
            <path class="cls-1" d="M536.25,674.97l-16.5,16.5,25.41,25.41v10.92h-65.17v23.33h65.17v10.92l-25.41,25.41,16.5,16.5,23.81-23.81c5.4-5.4,8.44-12.73,8.44-20.38v-40.62c0-7.64-3.04-14.97-8.44-20.38l-23.81-23.81Z"/>
            <path class="cls-1" d="M423.75,674.97l16.5,16.5-25.41,25.41v10.92h65.17s0,23.33,0,23.33h-65.17v10.92s25.41,25.41,25.41,25.41l-16.5,16.5-23.81-23.81c-5.4-5.4-8.44-12.73-8.44-20.38v-40.62c0-7.64,3.04-14.97,8.44-20.38l23.81-23.81Z"/>
            <path class="cls-1" d="M672,751.13v-23.33h-65.17v-10.92l25.41-25.41-16.5-16.5-23.81,23.81c-5.4,5.4-8.44,12.73-8.44,20.38v40.62c0,7.64,3.04,14.97,8.44,20.38l23.81,23.81,16.5-16.5-25.41-25.41v-10.92h65.17Z"/>
            <path class="cls-1" d="M672,751.13v-23.33s65.17,0,65.17,0v-10.92s-25.41-25.41-25.41-25.41l16.5-16.5,23.81,23.81c5.4,5.4,8.44,12.73,8.44,20.38v40.62c0,7.64-3.04,14.97-8.44,20.38l-23.81,23.81-16.5-16.5,25.41-25.41v-10.92h-65.17Z"/>
          </g>
        </g>
      </g>
      <g>
        <g>
          <g>
            <path class="cls-1" d="M920.25,0l-16.5,16.5,25.41,25.41v10.92h-65.17v23.33h65.17v10.92l-25.41,25.41,16.5,16.5,23.81-23.81c5.4-5.4,8.44-12.73,8.44-20.38v-40.62c0-7.64-3.04-14.97-8.44-20.38L920.25,0Z"/>
            <path class="cls-1" d="M807.75,0l16.5,16.5-25.41,25.41v10.92h65.17s0,23.33,0,23.33h-65.17v10.92s25.41,25.41,25.41,25.41l-16.5,16.5-23.81-23.81c-5.4-5.4-8.44-12.73-8.44-20.38v-40.62c0-7.64,3.04-14.97,8.44-20.38L807.75,0Z"/>
            <path class="cls-1" d="M1056,76.16v-23.33h-65.17v-10.92l25.41-25.41L999.75,0l-23.81,23.81c-5.4,5.4-8.44,12.73-8.44,20.38v40.62c0,7.64,3.04,14.97,8.44,20.38l23.81,23.81,16.5-16.5-25.41-25.41v-10.92h65.17Z"/>
            <path class="cls-1" d="M1056,76.16v-23.33s65.17,0,65.17,0v-10.92s-25.41-25.41-25.41-25.41l16.5-16.5,23.81,23.81c5.4,5.4,8.44,12.73,8.44,20.38v40.62c0,7.64-3.04,14.97-8.44,20.38l-23.81,23.81-16.5-16.5,25.41-25.41v-10.92h-65.17Z"/>
          </g>
          <g>
            <path class="cls-1" d="M1016.25,112.5l-16.5,16.5,25.41,25.41v10.92h-65.17v23.33h65.17v10.92l-25.41,25.41,16.5,16.5,23.81-23.81c5.4-5.4,8.44-12.73,8.44-20.38v-40.62c0-7.64-3.04-14.97-8.44-20.38l-23.81-23.81Z"/>
            <path class="cls-1" d="M1152,188.66v-23.33h-65.17v-10.92l25.41-25.41-16.5-16.5-23.81,23.81c-5.4,5.4-8.44,12.73-8.44,20.38v40.62c0,7.64,3.04,14.97,8.44,20.38l23.81,23.81,16.5-16.5-25.41-25.41v-10.92h65.17Z"/>
          </g>
          <g>
            <path class="cls-1" d="M824.25,112.5l-16.5,16.5,25.41,25.41v10.92h-65.17v23.33h65.17v10.92l-25.41,25.41,16.5,16.5,23.81-23.81c5.4-5.4,8.44-12.73,8.44-20.38v-40.62c0-7.64-3.04-14.97-8.44-20.38l-23.81-23.81Z"/>
            <path class="cls-1" d="M960,188.66v-23.33h-65.17v-10.92l25.41-25.41-16.5-16.5-23.81,23.81c-5.4,5.4-8.44,12.73-8.44,20.38v40.62c0,7.64,3.04,14.97,8.44,20.38l23.81,23.81,16.5-16.5-25.41-25.41v-10.92h65.17Z"/>
          </g>
          <g>
            <path class="cls-1" d="M920.25,224.99l-16.5,16.5,25.41,25.41v10.92h-65.17v23.33h65.17v10.92l-25.41,25.41,16.5,16.5,23.81-23.81c5.4-5.4,8.44-12.73,8.44-20.38v-40.62c0-7.64-3.04-14.97-8.44-20.38l-23.81-23.81Z"/>
            <path class="cls-1" d="M807.75,224.99l16.5,16.5-25.41,25.41v10.92h65.17s0,23.33,0,23.33h-65.17v10.92s25.41,25.41,25.41,25.41l-16.5,16.5-23.81-23.81c-5.4-5.4-8.44-12.73-8.44-20.38v-40.62c0-7.64,3.04-14.97,8.44-20.38l23.81-23.81Z"/>
            <path class="cls-1" d="M1056,301.15v-23.33h-65.17v-10.92l25.41-25.41-16.5-16.5-23.81,23.81c-5.4,5.4-8.44,12.73-8.44,20.38v40.62c0,7.64,3.04,14.97,8.44,20.38l23.81,23.81,16.5-16.5-25.41-25.41v-10.92h65.17Z"/>
            <path class="cls-1" d="M1056,301.15v-23.33s65.17,0,65.17,0v-10.92s-25.41-25.41-25.41-25.41l16.5-16.5,23.81,23.81c5.4,5.4,8.44,12.73,8.44,20.38v40.62c0,7.64-3.04,14.97-8.44,20.38l-23.81,23.81-16.5-16.5,25.41-25.41v-10.92h-65.17Z"/>
          </g>
          <g>
            <path class="cls-1" d="M1016.25,337.49l-16.5,16.5,25.41,25.41v10.92h-65.17v23.33h65.17v10.92l-25.41,25.41,16.5,16.5,23.81-23.81c5.4-5.4,8.44-12.73,8.44-20.38v-40.62c0-7.64-3.04-14.97-8.44-20.38l-23.81-23.81Z"/>
            <path class="cls-1" d="M1152,413.65v-23.33h-65.17v-10.92l25.41-25.41-16.5-16.5-23.81,23.81c-5.4,5.4-8.44,12.73-8.44,20.38v40.62c0,7.64,3.04,14.97,8.44,20.38l23.81,23.81,16.5-16.5-25.41-25.41v-10.92h65.17Z"/>
          </g>
          <g>
            <path class="cls-1" d="M824.25,337.49l-16.5,16.5,25.41,25.41v10.92h-65.17v23.33h65.17v10.92l-25.41,25.41,16.5,16.5,23.81-23.81c5.4-5.4,8.44-12.73,8.44-20.38v-40.62c0-7.64-3.04-14.97-8.44-20.38l-23.81-23.81Z"/>
            <path class="cls-1" d="M960,413.65v-23.33h-65.17v-10.92l25.41-25.41-16.5-16.5-23.81,23.81c-5.4,5.4-8.44,12.73-8.44,20.38v40.62c0,7.64,3.04,14.97,8.44,20.38l23.81,23.81,16.5-16.5-25.41-25.41v-10.92h65.17Z"/>
          </g>
        </g>
        <g>
          <g>
            <path class="cls-1" d="M920.25,449.98l-16.5,16.5,25.41,25.41v10.92h-65.17v23.33h65.17v10.92l-25.41,25.41,16.5,16.5,23.81-23.81c5.4-5.4,8.44-12.73,8.44-20.38v-40.62c0-7.64-3.04-14.97-8.44-20.38l-23.81-23.81Z"/>
            <path class="cls-1" d="M807.75,449.98l16.5,16.5-25.41,25.41v10.92h65.17s0,23.33,0,23.33h-65.17v10.92s25.41,25.41,25.41,25.41l-16.5,16.5-23.81-23.81c-5.4-5.4-8.44-12.73-8.44-20.38v-40.62c0-7.64,3.04-14.97,8.44-20.38l23.81-23.81Z"/>
            <path class="cls-1" d="M1056,526.14v-23.33h-65.17v-10.92l25.41-25.41-16.5-16.5-23.81,23.81c-5.4,5.4-8.44,12.73-8.44,20.38v40.62c0,7.64,3.04,14.97,8.44,20.38l23.81,23.81,16.5-16.5-25.41-25.41v-10.92h65.17Z"/>
            <path class="cls-1" d="M1056,526.14v-23.33s65.17,0,65.17,0v-10.92s-25.41-25.41-25.41-25.41l16.5-16.5,23.81,23.81c5.4,5.4,8.44,12.73,8.44,20.38v40.62c0,7.64-3.04,14.97-8.44,20.38l-23.81,23.81-16.5-16.5,25.41-25.41v-10.92h-65.17Z"/>
          </g>
          <g>
            <path class="cls-1" d="M1016.25,562.48l-16.5,16.5,25.41,25.41v10.92h-65.17v23.33h65.17v10.92l-25.41,25.41,16.5,16.5,23.81-23.81c5.4-5.4,8.44-12.73,8.44-20.38v-40.62c0-7.64-3.04-14.97-8.44-20.38l-23.81-23.81Z"/>
            <path class="cls-1" d="M1152,638.64v-23.33h-65.17v-10.92l25.41-25.41-16.5-16.5-23.81,23.81c-5.4,5.4-8.44,12.73-8.44,20.38v40.62c0,7.64,3.04,14.97,8.44,20.38l23.81,23.81,16.5-16.5-25.41-25.41v-10.92h65.17Z"/>
          </g>
          <g>
            <path class="cls-1" d="M824.25,562.48l-16.5,16.5,25.41,25.41v10.92h-65.17v23.33h65.17v10.92l-25.41,25.41,16.5,16.5,23.81-23.81c5.4-5.4,8.44-12.73,8.44-20.38v-40.62c0-7.64-3.04-14.97-8.44-20.38l-23.81-23.81Z"/>
            <path class="cls-1" d="M960,638.64v-23.33h-65.17v-10.92l25.41-25.41-16.5-16.5-23.81,23.81c-5.4,5.4-8.44,12.73-8.44,20.38v40.62c0,7.64,3.04,14.97,8.44,20.38l23.81,23.81,16.5-16.5-25.41-25.41v-10.92h65.17Z"/>
          </g>
          <g>
            <path class="cls-1" d="M920.25,674.97l-16.5,16.5,25.41,25.41v10.92h-65.17v23.33h65.17v10.92l-25.41,25.41,16.5,16.5,23.81-23.81c5.4-5.4,8.44-12.73,8.44-20.38v-40.62c0-7.64-3.04-14.97-8.44-20.38l-23.81-23.81Z"/>
            <path class="cls-1" d="M807.75,674.97l16.5,16.5-25.41,25.41v10.92h65.17s0,23.33,0,23.33h-65.17v10.92s25.41,25.41,25.41,25.41l-16.5,16.5-23.81-23.81c-5.4-5.4-8.44-12.73-8.44-20.38v-40.62c0-7.64,3.04-14.97,8.44-20.38l23.81-23.81Z"/>
            <path class="cls-1" d="M1056,751.13v-23.33h-65.17v-10.92l25.41-25.41-16.5-16.5-23.81,23.81c-5.4,5.4-8.44,12.73-8.44,20.38v40.62c0,7.64,3.04,14.97,8.44,20.38l23.81,23.81,16.5-16.5-25.41-25.41v-10.92h65.17Z"/>
            <path class="cls-1" d="M1056,751.13v-23.33s65.17,0,65.17,0v-10.92s-25.41-25.41-25.41-25.41l16.5-16.5,23.81,23.81c5.4,5.4,8.44,12.73,8.44,20.38v40.62c0,7.64-3.04,14.97-8.44,20.38l-23.81,23.81-16.5-16.5,25.41-25.41v-10.92h-65.17Z"/>
          </g>
        </g>
      </g>
      <g>
        <g>
          <g>
            <path class="cls-1" d="M1304.25,0l-16.5,16.5,25.41,25.41v10.92h-65.17v23.33h65.17v10.92l-25.41,25.41,16.5,16.5,23.81-23.81c5.4-5.4,8.44-12.73,8.44-20.38v-40.62c0-7.64-3.04-14.97-8.44-20.38L1304.25,0Z"/>
            <path class="cls-1" d="M1191.75,0l16.5,16.5-25.41,25.41v10.92h65.17s0,23.33,0,23.33h-65.17v10.92s25.41,25.41,25.41,25.41l-16.5,16.5-23.81-23.81c-5.4-5.4-8.44-12.73-8.44-20.38v-40.62c0-7.64,3.04-14.97,8.44-20.38L1191.75,0Z"/>
            <path class="cls-1" d="M1440,76.16v-23.33h-65.17v-10.92l25.41-25.41L1383.75,0l-23.81,23.81c-5.4,5.4-8.44,12.73-8.44,20.38v40.62c0,7.64,3.04,14.97,8.44,20.38l23.81,23.81,16.5-16.5-25.41-25.41v-10.92h65.17Z"/>
            <path class="cls-1" d="M1440,76.16v-23.33s65.17,0,65.17,0v-10.92s-25.41-25.41-25.41-25.41l16.5-16.5,23.81,23.81c5.4,5.4,8.44,12.73,8.44,20.38v40.62c0,7.64-3.04,14.97-8.44,20.38l-23.81,23.81-16.5-16.5,25.41-25.41v-10.92h-65.17Z"/>
          </g>
          <g>
            <path class="cls-1" d="M1400.25,112.5l-16.5,16.5,25.41,25.41v10.92h-65.17v23.33h65.17v10.92l-25.41,25.41,16.5,16.5,23.81-23.81c5.4-5.4,8.44-12.73,8.44-20.38v-40.62c0-7.64-3.04-14.97-8.44-20.38l-23.81-23.81Z"/>
            <path class="cls-1" d="M1536,188.66v-23.33h-65.17v-10.92l25.41-25.41-16.5-16.5-23.81,23.81c-5.4,5.4-8.44,12.73-8.44,20.38v40.62c0,7.64,3.04,14.97,8.44,20.38l23.81,23.81,16.5-16.5-25.41-25.41v-10.92h65.17Z"/>
          </g>
          <g>
            <path class="cls-1" d="M1208.25,112.5l-16.5,16.5,25.41,25.41v10.92h-65.17v23.33h65.17v10.92l-25.41,25.41,16.5,16.5,23.81-23.81c5.4-5.4,8.44-12.73,8.44-20.38v-40.62c0-7.64-3.04-14.97-8.44-20.38l-23.81-23.81Z"/>
            <path class="cls-1" d="M1344,188.66v-23.33h-65.17v-10.92l25.41-25.41-16.5-16.5-23.81,23.81c-5.4,5.4-8.44,12.73-8.44,20.38v40.62c0,7.64,3.04,14.97,8.44,20.38l23.81,23.81,16.5-16.5-25.41-25.41v-10.92h65.17Z"/>
          </g>
          <g>
            <path class="cls-1" d="M1304.25,224.99l-16.5,16.5,25.41,25.41v10.92h-65.17v23.33h65.17v10.92l-25.41,25.41,16.5,16.5,23.81-23.81c5.4-5.4,8.44-12.73,8.44-20.38v-40.62c0-7.64-3.04-14.97-8.44-20.38l-23.81-23.81Z"/>
            <path class="cls-1" d="M1191.75,224.99l16.5,16.5-25.41,25.41v10.92h65.17s0,23.33,0,23.33h-65.17v10.92s25.41,25.41,25.41,25.41l-16.5,16.5-23.81-23.81c-5.4-5.4-8.44-12.73-8.44-20.38v-40.62c0-7.64,3.04-14.97,8.44-20.38l23.81-23.81Z"/>
            <path class="cls-1" d="M1440,301.15v-23.33h-65.17v-10.92l25.41-25.41-16.5-16.5-23.81,23.81c-5.4,5.4-8.44,12.73-8.44,20.38v40.62c0,7.64,3.04,14.97,8.44,20.38l23.81,23.81,16.5-16.5-25.41-25.41v-10.92h65.17Z"/>
            <path class="cls-1" d="M1440,301.15v-23.33s65.17,0,65.17,0v-10.92s-25.41-25.41-25.41-25.41l16.5-16.5,23.81,23.81c5.4,5.4,8.44,12.73,8.44,20.38v40.62c0,7.64-3.04,14.97-8.44,20.38l-23.81,23.81-16.5-16.5,25.41-25.41v-10.92h-65.17Z"/>
          </g>
          <g>
            <path class="cls-1" d="M1400.25,337.49l-16.5,16.5,25.41,25.41v10.92h-65.17v23.33h65.17v10.92l-25.41,25.41,16.5,16.5,23.81-23.81c5.4-5.4,8.44-12.73,8.44-20.38v-40.62c0-7.64-3.04-14.97-8.44-20.38l-23.81-23.81Z"/>
            <path class="cls-1" d="M1536,413.65v-23.33h-65.17v-10.92l25.41-25.41-16.5-16.5-23.81,23.81c-5.4,5.4-8.44,12.73-8.44,20.38v40.62c0,7.64,3.04,14.97,8.44,20.38l23.81,23.81,16.5-16.5-25.41-25.41v-10.92h65.17Z"/>
          </g>
          <g>
            <path class="cls-1" d="M1208.25,337.49l-16.5,16.5,25.41,25.41v10.92h-65.17v23.33h65.17v10.92l-25.41,25.41,16.5,16.5,23.81-23.81c5.4-5.4,8.44-12.73,8.44-20.38v-40.62c0-7.64-3.04-14.97-8.44-20.38l-23.81-23.81Z"/>
            <path class="cls-1" d="M1344,413.65v-23.33h-65.17v-10.92l25.41-25.41-16.5-16.5-23.81,23.81c-5.4,5.4-8.44,12.73-8.44,20.38v40.62c0,7.64,3.04,14.97,8.44,20.38l23.81,23.81,16.5-16.5-25.41-25.41v-10.92h65.17Z"/>
          </g>
        </g>
        <g>
          <g>
            <path class="cls-1" d="M1304.25,449.98l-16.5,16.5,25.41,25.41v10.92h-65.17v23.33h65.17v10.92l-25.41,25.41,16.5,16.5,23.81-23.81c5.4-5.4,8.44-12.73,8.44-20.38v-40.62c0-7.64-3.04-14.97-8.44-20.38l-23.81-23.81Z"/>
            <path class="cls-1" d="M1191.75,449.98l16.5,16.5-25.41,25.41v10.92h65.17s0,23.33,0,23.33h-65.17v10.92s25.41,25.41,25.41,25.41l-16.5,16.5-23.81-23.81c-5.4-5.4-8.44-12.73-8.44-20.38v-40.62c0-7.64,3.04-14.97,8.44-20.38l23.81-23.81Z"/>
            <path class="cls-1" d="M1440,526.14v-23.33h-65.17v-10.92l25.41-25.41-16.5-16.5-23.81,23.81c-5.4,5.4-8.44,12.73-8.44,20.38v40.62c0,7.64,3.04,14.97,8.44,20.38l23.81,23.81,16.5-16.5-25.41-25.41v-10.92h65.17Z"/>
            <path class="cls-1" d="M1440,526.14v-23.33s65.17,0,65.17,0v-10.92s-25.41-25.41-25.41-25.41l16.5-16.5,23.81,23.81c5.4,5.4,8.44,12.73,8.44,20.38v40.62c0,7.64-3.04,14.97-8.44,20.38l-23.81,23.81-16.5-16.5,25.41-25.41v-10.92h-65.17Z"/>
          </g>
          <g>
            <path class="cls-1" d="M1400.25,562.48l-16.5,16.5,25.41,25.41v10.92h-65.17v23.33h65.17v10.92l-25.41,25.41,16.5,16.5,23.81-23.81c5.4-5.4,8.44-12.73,8.44-20.38v-40.62c0-7.64-3.04-14.97-8.44-20.38l-23.81-23.81Z"/>
            <path class="cls-1" d="M1536,638.64v-23.33h-65.17v-10.92l25.41-25.41-16.5-16.5-23.81,23.81c-5.4,5.4-8.44,12.73-8.44,20.38v40.62c0,7.64,3.04,14.97,8.44,20.38l23.81,23.81,16.5-16.5-25.41-25.41v-10.92h65.17Z"/>
          </g>
          <g>
            <path class="cls-1" d="M1208.25,562.48l-16.5,16.5,25.41,25.41v10.92h-65.17v23.33h65.17v10.92l-25.41,25.41,16.5,16.5,23.81-23.81c5.4-5.4,8.44-12.73,8.44-20.38v-40.62c0-7.64-3.04-14.97-8.44-20.38l-23.81-23.81Z"/>
            <path class="cls-1" d="M1344,638.64v-23.33h-65.17v-10.92l25.41-25.41-16.5-16.5-23.81,23.81c-5.4,5.4-8.44,12.73-8.44,20.38v40.62c0,7.64,3.04,14.97,8.44,20.38l23.81,23.81,16.5-16.5-25.41-25.41v-10.92h65.17Z"/>
          </g>
          <g>
            <path class="cls-1" d="M1304.25,674.97l-16.5,16.5,25.41,25.41v10.92h-65.17v23.33h65.17v10.92l-25.41,25.41,16.5,16.5,23.81-23.81c5.4-5.4,8.44-12.73,8.44-20.38v-40.62c0-7.64-3.04-14.97-8.44-20.38l-23.81-23.81Z"/>
            <path class="cls-1" d="M1191.75,674.97l16.5,16.5-25.41,25.41v10.92h65.17s0,23.33,0,23.33h-65.17v10.92s25.41,25.41,25.41,25.41l-16.5,16.5-23.81-23.81c-5.4-5.4-8.44-12.73-8.44-20.38v-40.62c0-7.64,3.04-14.97,8.44-20.38l23.81-23.81Z"/>
            <path class="cls-1" d="M1440,751.13v-23.33h-65.17v-10.92l25.41-25.41-16.5-16.5-23.81,23.81c-5.4,5.4-8.44,12.73-8.44,20.38v40.62c0,7.64,3.04,14.97,8.44,20.38l23.81,23.81,16.5-16.5-25.41-25.41v-10.92h65.17Z"/>
            <path class="cls-1" d="M1440,751.13v-23.33s65.17,0,65.17,0v-10.92s-25.41-25.41-25.41-25.41l16.5-16.5,23.81,23.81c5.4,5.4,8.44,12.73,8.44,20.38v40.62c0,7.64-3.04,14.97-8.44,20.38l-23.81,23.81-16.5-16.5,25.41-25.41v-10.92h-65.17Z"/>
          </g>
        </g>
      </g>
      <g>
        <g>
          <g>
            <path class="cls-1" d="M1688.25,0l-16.5,16.5,25.41,25.41v10.92h-65.17v23.33h65.17v10.92l-25.41,25.41,16.5,16.5,23.81-23.81c5.4-5.4,8.44-12.73,8.44-20.38v-40.62c0-7.64-3.04-14.97-8.44-20.38L1688.25,0Z"/>
            <path class="cls-1" d="M1575.75,0l16.5,16.5-25.41,25.41v10.92h65.17s0,23.33,0,23.33h-65.17v10.92s25.41,25.41,25.41,25.41l-16.5,16.5-23.81-23.81c-5.4-5.4-8.44-12.73-8.44-20.38v-40.62c0-7.64,3.04-14.97,8.44-20.38L1575.75,0Z"/>
            <path class="cls-1" d="M1824,76.16v-23.33h-65.17v-10.92l25.41-25.41L1767.75,0l-23.81,23.81c-5.4,5.4-8.44,12.73-8.44,20.38v40.62c0,7.64,3.04,14.97,8.44,20.38l23.81,23.81,16.5-16.5-25.41-25.41v-10.92h65.17Z"/>
            <path class="cls-1" d="M1824,76.16v-23.33s65.17,0,65.17,0v-10.92s-25.41-25.41-25.41-25.41l16.5-16.5,23.81,23.81c5.4,5.4,8.44,12.73,8.44,20.38v40.62c0,7.64-3.04,14.97-8.44,20.38l-23.81,23.81-16.5-16.5,25.41-25.41v-10.92h-65.17Z"/>
          </g>
          <g>
            <path class="cls-1" d="M1784.25,112.5l-16.5,16.5,25.41,25.41v10.92h-65.17v23.33h65.17v10.92l-25.41,25.41,16.5,16.5,23.81-23.81c5.4-5.4,8.44-12.73,8.44-20.38v-40.62c0-7.64-3.04-14.97-8.44-20.38l-23.81-23.81Z"/>
            <path class="cls-1" d="M1920,188.66v-23.33h-65.17v-10.92l25.41-25.41-16.5-16.5-23.81,23.81c-5.4,5.4-8.44,12.73-8.44,20.38v40.62c0,7.64,3.04,14.97,8.44,20.38l23.81,23.81,16.5-16.5-25.41-25.41v-10.92h65.17Z"/>
          </g>
          <g>
            <path class="cls-1" d="M1592.25,112.5l-16.5,16.5,25.41,25.41v10.92h-65.17v23.33h65.17v10.92l-25.41,25.41,16.5,16.5,23.81-23.81c5.4-5.4,8.44-12.73,8.44-20.38v-40.62c0-7.64-3.04-14.97-8.44-20.38l-23.81-23.81Z"/>
            <path class="cls-1" d="M1728,188.66v-23.33h-65.17v-10.92l25.41-25.41-16.5-16.5-23.81,23.81c-5.4,5.4-8.44,12.73-8.44,20.38v40.62c0,7.64,3.04,14.97,8.44,20.38l23.81,23.81,16.5-16.5-25.41-25.41v-10.92h65.17Z"/>
          </g>
          <g>
            <path class="cls-1" d="M1688.25,224.99l-16.5,16.5,25.41,25.41v10.92h-65.17v23.33h65.17v10.92l-25.41,25.41,16.5,16.5,23.81-23.81c5.4-5.4,8.44-12.73,8.44-20.38v-40.62c0-7.64-3.04-14.97-8.44-20.38l-23.81-23.81Z"/>
            <path class="cls-1" d="M1575.75,224.99l16.5,16.5-25.41,25.41v10.92h65.17s0,23.33,0,23.33h-65.17v10.92s25.41,25.41,25.41,25.41l-16.5,16.5-23.81-23.81c-5.4-5.4-8.44-12.73-8.44-20.38v-40.62c0-7.64,3.04-14.97,8.44-20.38l23.81-23.81Z"/>
            <path class="cls-1" d="M1824,301.15v-23.33h-65.17v-10.92l25.41-25.41-16.5-16.5-23.81,23.81c-5.4,5.4-8.44,12.73-8.44,20.38v40.62c0,7.64,3.04,14.97,8.44,20.38l23.81,23.81,16.5-16.5-25.41-25.41v-10.92h65.17Z"/>
            <path class="cls-1" d="M1824,301.15v-23.33s65.17,0,65.17,0v-10.92s-25.41-25.41-25.41-25.41l16.5-16.5,23.81,23.81c5.4,5.4,8.44,12.73,8.44,20.38v40.62c0,7.64-3.04,14.97-8.44,20.38l-23.81,23.81-16.5-16.5,25.41-25.41v-10.92h-65.17Z"/>
          </g>
          <g>
            <path class="cls-1" d="M1784.25,337.49l-16.5,16.5,25.41,25.41v10.92h-65.17v23.33h65.17v10.92l-25.41,25.41,16.5,16.5,23.81-23.81c5.4-5.4,8.44-12.73,8.44-20.38v-40.62c0-7.64-3.04-14.97-8.44-20.38l-23.81-23.81Z"/>
            <path class="cls-1" d="M1920,413.65v-23.33h-65.17v-10.92l25.41-25.41-16.5-16.5-23.81,23.81c-5.4,5.4-8.44,12.73-8.44,20.38v40.62c0,7.64,3.04,14.97,8.44,20.38l23.81,23.81,16.5-16.5-25.41-25.41v-10.92h65.17Z"/>
          </g>
          <g>
            <path class="cls-1" d="M1592.25,337.49l-16.5,16.5,25.41,25.41v10.92h-65.17v23.33h65.17v10.92l-25.41,25.41,16.5,16.5,23.81-23.81c5.4-5.4,8.44-12.73,8.44-20.38v-40.62c0-7.64-3.04-14.97-8.44-20.38l-23.81-23.81Z"/>
            <path class="cls-1" d="M1728,413.65v-23.33h-65.17v-10.92l25.41-25.41-16.5-16.5-23.81,23.81c-5.4,5.4-8.44,12.73-8.44,20.38v40.62c0,7.64,3.04,14.97,8.44,20.38l23.81,23.81,16.5-16.5-25.41-25.41v-10.92h65.17Z"/>
          </g>
        </g>
        <g>
          <g>
            <path class="cls-1" d="M1688.25,449.98l-16.5,16.5,25.41,25.41v10.92h-65.17v23.33h65.17v10.92l-25.41,25.41,16.5,16.5,23.81-23.81c5.4-5.4,8.44-12.73,8.44-20.38v-40.62c0-7.64-3.04-14.97-8.44-20.38l-23.81-23.81Z"/>
            <path class="cls-1" d="M1575.75,449.98l16.5,16.5-25.41,25.41v10.92h65.17s0,23.33,0,23.33h-65.17v10.92s25.41,25.41,25.41,25.41l-16.5,16.5-23.81-23.81c-5.4-5.4-8.44-12.73-8.44-20.38v-40.62c0-7.64,3.04-14.97,8.44-20.38l23.81-23.81Z"/>
            <path class="cls-1" d="M1824,526.14v-23.33h-65.17v-10.92l25.41-25.41-16.5-16.5-23.81,23.81c-5.4,5.4-8.44,12.73-8.44,20.38v40.62c0,7.64,3.04,14.97,8.44,20.38l23.81,23.81,16.5-16.5-25.41-25.41v-10.92h65.17Z"/>
            <path class="cls-1" d="M1824,526.14v-23.33s65.17,0,65.17,0v-10.92s-25.41-25.41-25.41-25.41l16.5-16.5,23.81,23.81c5.4,5.4,8.44,12.73,8.44,20.38v40.62c0,7.64-3.04,14.97-8.44,20.38l-23.81,23.81-16.5-16.5,25.41-25.41v-10.92h-65.17Z"/>
          </g>
          <g>
            <path class="cls-1" d="M1784.25,562.48l-16.5,16.5,25.41,25.41v10.92h-65.17v23.33h65.17v10.92l-25.41,25.41,16.5,16.5,23.81-23.81c5.4-5.4,8.44-12.73,8.44-20.38v-40.62c0-7.64-3.04-14.97-8.44-20.38l-23.81-23.81Z"/>
            <path class="cls-1" d="M1920,638.64v-23.33h-65.17v-10.92l25.41-25.41-16.5-16.5-23.81,23.81c-5.4,5.4-8.44,12.73-8.44,20.38v40.62c0,7.64,3.04,14.97,8.44,20.38l23.81,23.81,16.5-16.5-25.41-25.41v-10.92h65.17Z"/>
          </g>
          <g>
            <path class="cls-1" d="M1592.25,562.48l-16.5,16.5,25.41,25.41v10.92h-65.17v23.33h65.17v10.92l-25.41,25.41,16.5,16.5,23.81-23.81c5.4-5.4,8.44-12.73,8.44-20.38v-40.62c0-7.64-3.04-14.97-8.44-20.38l-23.81-23.81Z"/>
            <path class="cls-1" d="M1728,638.64v-23.33h-65.17v-10.92l25.41-25.41-16.5-16.5-23.81,23.81c-5.4,5.4-8.44,12.73-8.44,20.38v40.62c0,7.64,3.04,14.97,8.44,20.38l23.81,23.81,16.5-16.5-25.41-25.41v-10.92h65.17Z"/>
          </g>
          <g>
            <path class="cls-1" d="M1688.25,674.97l-16.5,16.5,25.41,25.41v10.92h-65.17v23.33h65.17v10.92l-25.41,25.41,16.5,16.5,23.81-23.81c5.4-5.4,8.44-12.73,8.44-20.38v-40.62c0-7.64-3.04-14.97-8.44-20.38l-23.81-23.81Z"/>
            <path class="cls-1" d="M1575.75,674.97l16.5,16.5-25.41,25.41v10.92h65.17s0,23.33,0,23.33h-65.17v10.92s25.41,25.41,25.41,25.41l-16.5,16.5-23.81-23.81c-5.4-5.4-8.44-12.73-8.44-20.38v-40.62c0-7.64,3.04-14.97,8.44-20.38l23.81-23.81Z"/>
            <path class="cls-1" d="M1824,751.13v-23.33h-65.17v-10.92l25.41-25.41-16.5-16.5-23.81,23.81c-5.4,5.4-8.44,12.73-8.44,20.38v40.62c0,7.64,3.04,14.97,8.44,20.38l23.81,23.81,16.5-16.5-25.41-25.41v-10.92h65.17Z"/>
            <path class="cls-1" d="M1824,751.13v-23.33s65.17,0,65.17,0v-10.92s-25.41-25.41-25.41-25.41l16.5-16.5,23.81,23.81c5.4,5.4,8.44,12.73,8.44,20.38v40.62c0,7.64-3.04,14.97-8.44,20.38l-23.81,23.81-16.5-16.5,25.41-25.41v-10.92h-65.17Z"/>
          </g>
        </g>
      </g>
    </g>
  </g>
</svg>