<?xml version="1.0" encoding="UTF-8"?>
<svg id="Camada_2" data-name="Camada 2" xmlns="http://www.w3.org/2000/svg" viewBox="0 0 42 42">
  <defs>
    <style>
      .cls-1 {
        fill: #121c2d;
      }

      .cls-2 {
        fill: #b4e01e;
      }
    </style>
  </defs>
  <g id="Camada_1-2" data-name="Camada 1">
    <g>
      <polygon class="cls-2" points="29.53 42 12.47 42 0 29.53 0 12.47 12.47 0 29.53 0 42 12.47 42 29.53 29.53 42"/>
      <g>
        <path class="cls-1" d="M27.07,23.78c-.33-.17-1.97-.97-2.27-1.08-.3-.11-.53-.17-.75.17-.22.33-.86,1.08-1.05,1.31-.19.22-.39.25-.72.08-.33-.17-1.41-.52-2.68-1.65-.99-.88-1.66-1.97-1.85-2.31-.19-.33-.02-.51.15-.68.15-.15.33-.39.5-.58.17-.19.22-.33.33-.56.11-.22.06-.42-.03-.58-.08-.17-.75-1.8-1.03-2.47-.27-.65-.54-.56-.75-.57-.19,0-.42-.01-.64-.01s-.58.08-.89.42c-.31.33-1.17,1.14-1.17,2.78s1.19,3.22,1.36,3.44c.17.22,2.35,3.58,5.69,5.02.79.34,1.41.55,1.9.7.8.25,1.52.22,2.1.13.64-.1,1.97-.81,2.25-1.58.28-.78.28-1.44.19-1.58-.08-.14-.31-.22-.64-.39Z"/>
        <path class="cls-1" d="M30.42,11.58c-2.52-2.52-5.86-3.9-9.42-3.91-7.34,0-13.32,5.97-13.32,13.32,0,2.35.61,4.64,1.78,6.66l-1.89,6.9,7.06-1.85c1.95,1.06,4.14,1.62,6.37,1.62h0c7.34,0,13.32-5.97,13.32-13.32,0-3.56-1.38-6.91-3.9-9.42ZM21,32.07h0c-1.99,0-3.94-.53-5.64-1.54l-.4-.24-4.19,1.1,1.12-4.08-.26-.42c-1.11-1.76-1.69-3.8-1.69-5.89,0-6.1,4.97-11.07,11.08-11.07,2.96,0,5.74,1.15,7.83,3.25,2.09,2.09,3.24,4.87,3.24,7.83,0,6.1-4.97,11.07-11.07,11.07Z"/>
      </g>
    </g>
  </g>
</svg>